G04 #@! TF.GenerationSoftware,KiCad,Pcbnew,(6.0.9)*
G04 #@! TF.CreationDate,2023-11-11T16:39:11+09:00*
G04 #@! TF.ProjectId,GGBLA125A_Evaluation_Board,4747424c-4131-4323-9541-5f4576616c75,rev?*
G04 #@! TF.SameCoordinates,Original*
G04 #@! TF.FileFunction,Copper,L2,Inr*
G04 #@! TF.FilePolarity,Positive*
%FSLAX46Y46*%
G04 Gerber Fmt 4.6, Leading zero omitted, Abs format (unit mm)*
G04 Created by KiCad (PCBNEW (6.0.9)) date 2023-11-11 16:39:11*
%MOMM*%
%LPD*%
G01*
G04 APERTURE LIST*
G04 #@! TA.AperFunction,ViaPad*
%ADD10C,0.600000*%
G04 #@! TD*
G04 APERTURE END LIST*
D10*
X126176000Y-123810000D03*
X127700000Y-123810000D03*
X129224000Y-123810000D03*
X126176000Y-116190000D03*
X127700000Y-116190000D03*
X129224000Y-116190000D03*
X129175000Y-121150000D03*
X128550000Y-121150000D03*
X126050000Y-121150000D03*
X127300000Y-121150000D03*
X127925000Y-121150000D03*
X126675000Y-121150000D03*
X129175000Y-118850000D03*
X128550000Y-118850000D03*
X127925000Y-118850000D03*
X127300000Y-118850000D03*
X126675000Y-118850000D03*
X126050000Y-118850000D03*
X122500000Y-114000000D03*
X115000000Y-114000000D03*
X122500000Y-126000000D03*
X115000000Y-126000000D03*
X120500000Y-123000000D03*
X116500000Y-123000000D03*
X124500000Y-123000000D03*
X112500000Y-123000000D03*
X112500000Y-117000000D03*
X116500000Y-117000000D03*
X120500000Y-117000000D03*
X124500000Y-117000000D03*
X115000000Y-100000000D03*
X122500000Y-95000000D03*
X122500000Y-105000000D03*
X115000000Y-110000000D03*
X107500000Y-105000000D03*
X115000000Y-105000000D03*
X122500000Y-110000000D03*
X107500000Y-100000000D03*
X107500000Y-110000000D03*
X122500000Y-100000000D03*
X107500000Y-95000000D03*
X115000000Y-95000000D03*
X107500000Y-145000000D03*
X115000000Y-145000000D03*
X122500000Y-145000000D03*
X122500000Y-140000000D03*
X115000000Y-140000000D03*
X107500000Y-140000000D03*
X107500000Y-135000000D03*
X115000000Y-135000000D03*
X122500000Y-135000000D03*
X122500000Y-130000000D03*
X107500000Y-130000000D03*
X115000000Y-130000000D03*
X101500000Y-148500000D03*
X128500000Y-148500000D03*
X128500000Y-91500000D03*
X101500000Y-91500000D03*
X118810000Y-90790000D03*
X126430000Y-90790000D03*
X123890000Y-90790000D03*
X113730000Y-90790000D03*
X106110000Y-90790000D03*
X108650000Y-90790000D03*
X103570000Y-90790000D03*
X121350000Y-90790000D03*
X111190000Y-90790000D03*
X116270000Y-90790000D03*
X106110000Y-149210000D03*
X111190000Y-149210000D03*
X108650000Y-149210000D03*
X103570000Y-149210000D03*
X121350000Y-149210000D03*
X126430000Y-149210000D03*
X123890000Y-149210000D03*
X118810000Y-149210000D03*
X113730000Y-149210000D03*
X116270000Y-149210000D03*
X129224000Y-113904000D03*
X129224000Y-126096000D03*
X129224000Y-108824000D03*
X129224000Y-93584000D03*
X129224000Y-101204000D03*
X129224000Y-106284000D03*
X129224000Y-96124000D03*
X129224000Y-98664000D03*
X129224000Y-103744000D03*
X129224000Y-111364000D03*
X129224000Y-131176000D03*
X129224000Y-146416000D03*
X129224000Y-138796000D03*
X129224000Y-133716000D03*
X129224000Y-143876000D03*
X129224000Y-141336000D03*
X129224000Y-136256000D03*
X129224000Y-128636000D03*
X100776000Y-93584000D03*
X100776000Y-108824000D03*
X100776000Y-101204000D03*
X100776000Y-96124000D03*
X100776000Y-106284000D03*
X100776000Y-103744000D03*
X100776000Y-98664000D03*
X100776000Y-143876000D03*
X100776000Y-141336000D03*
X100776000Y-138796000D03*
X100776000Y-146416000D03*
X100776000Y-136256000D03*
X100776000Y-133716000D03*
X100776000Y-131176000D03*
X100776000Y-128636000D03*
X100776000Y-111364000D03*
X122375000Y-120850000D03*
X111775000Y-121000000D03*
X124250000Y-119150000D03*
X116125000Y-120850000D03*
X103350000Y-127800000D03*
X123000000Y-119150000D03*
X104650000Y-127800000D03*
X107900000Y-112200000D03*
X110300000Y-122800000D03*
X110550000Y-121175000D03*
X102700000Y-127800000D03*
X114875000Y-119150000D03*
X110300000Y-115250000D03*
X110300000Y-116550000D03*
X116125000Y-119150000D03*
X121750000Y-120850000D03*
X114250000Y-119150000D03*
X115500000Y-119150000D03*
X121125000Y-120850000D03*
X112750000Y-119150000D03*
X110300000Y-123450000D03*
X116750000Y-119150000D03*
X107900000Y-127800000D03*
X110300000Y-114600000D03*
X118000000Y-119150000D03*
X106600000Y-127800000D03*
X103350000Y-112200000D03*
X107250000Y-112200000D03*
X118625000Y-119150000D03*
X105300000Y-127800000D03*
X110300000Y-125400000D03*
X114875000Y-120850000D03*
X119875000Y-120850000D03*
X120500000Y-119150000D03*
X121125000Y-119150000D03*
X110300000Y-127350000D03*
X119250000Y-120850000D03*
X108550000Y-112200000D03*
X101400000Y-127800000D03*
X112125000Y-119150000D03*
X124250000Y-120850000D03*
X113500000Y-118450000D03*
X110300000Y-126700000D03*
X110300000Y-115900000D03*
X110300000Y-126050000D03*
X111550000Y-118875000D03*
X104000000Y-127800000D03*
X110300000Y-124100000D03*
X102050000Y-112200000D03*
X110300000Y-113950000D03*
X113000000Y-120850000D03*
X118000000Y-120850000D03*
X112375000Y-120850000D03*
X106600000Y-112200000D03*
X105950000Y-127800000D03*
X113625000Y-120850000D03*
X105300000Y-112200000D03*
X123625000Y-119150000D03*
X104000000Y-112200000D03*
X110925000Y-118825000D03*
X109850000Y-112200000D03*
X124875000Y-120850000D03*
X110300000Y-122150000D03*
X105950000Y-112200000D03*
X102700000Y-112200000D03*
X124875000Y-119150000D03*
X110300000Y-117850000D03*
X119875000Y-119150000D03*
X123625000Y-120850000D03*
X107250000Y-127800000D03*
X110300000Y-124750000D03*
X101400000Y-112200000D03*
X119250000Y-119150000D03*
X125500000Y-119150000D03*
X121750000Y-119150000D03*
X118625000Y-120850000D03*
X123000000Y-120850000D03*
X125500000Y-120850000D03*
X110300000Y-113300000D03*
X109200000Y-112200000D03*
X109850000Y-127800000D03*
X120500000Y-120850000D03*
X104650000Y-112200000D03*
X108550000Y-127800000D03*
X110300000Y-117200000D03*
X116750000Y-120850000D03*
X114250000Y-120850000D03*
X115500000Y-120850000D03*
X110300000Y-112650000D03*
X122375000Y-119150000D03*
X117375000Y-119150000D03*
X102050000Y-127800000D03*
X111175000Y-121175000D03*
X109200000Y-127800000D03*
X117375000Y-120850000D03*
G04 #@! TA.AperFunction,Conductor*
G36*
X127480241Y-90202466D02*
G01*
X127485810Y-90202476D01*
X127499641Y-90205656D01*
X127513483Y-90202523D01*
X127527671Y-90202548D01*
X127527670Y-90203297D01*
X127535610Y-90202654D01*
X127769567Y-90216806D01*
X127784671Y-90218640D01*
X128042808Y-90265945D01*
X128057581Y-90269586D01*
X128308145Y-90347665D01*
X128322363Y-90353057D01*
X128394085Y-90385337D01*
X128561679Y-90460765D01*
X128575152Y-90467836D01*
X128799741Y-90603605D01*
X128812263Y-90612248D01*
X129018857Y-90774104D01*
X129030245Y-90784194D01*
X129215806Y-90969755D01*
X129225896Y-90981143D01*
X129387752Y-91187737D01*
X129396395Y-91200259D01*
X129532164Y-91424848D01*
X129539234Y-91438319D01*
X129615006Y-91606676D01*
X129646941Y-91677633D01*
X129652337Y-91691860D01*
X129730414Y-91942419D01*
X129734055Y-91957192D01*
X129781360Y-92215329D01*
X129783194Y-92230433D01*
X129797319Y-92463939D01*
X129797549Y-92471768D01*
X129797524Y-92485811D01*
X129794344Y-92499641D01*
X129797476Y-92513480D01*
X129797467Y-92518311D01*
X129799500Y-92536504D01*
X129799500Y-147462920D01*
X129797534Y-147480241D01*
X129797524Y-147485810D01*
X129794344Y-147499641D01*
X129797477Y-147513483D01*
X129797452Y-147527671D01*
X129796703Y-147527670D01*
X129797346Y-147535610D01*
X129783194Y-147769567D01*
X129781360Y-147784671D01*
X129734055Y-148042808D01*
X129730414Y-148057581D01*
X129652337Y-148308140D01*
X129646943Y-148322363D01*
X129539235Y-148561679D01*
X129532164Y-148575152D01*
X129396395Y-148799741D01*
X129387752Y-148812263D01*
X129225896Y-149018857D01*
X129215806Y-149030245D01*
X129030245Y-149215806D01*
X129018857Y-149225896D01*
X128812263Y-149387752D01*
X128799741Y-149396395D01*
X128575152Y-149532164D01*
X128561681Y-149539234D01*
X128322363Y-149646943D01*
X128308145Y-149652335D01*
X128070650Y-149726341D01*
X128057581Y-149730414D01*
X128042808Y-149734055D01*
X127784671Y-149781360D01*
X127769567Y-149783194D01*
X127686817Y-149788200D01*
X127536053Y-149797319D01*
X127528232Y-149797549D01*
X127514189Y-149797524D01*
X127500359Y-149794344D01*
X127486520Y-149797476D01*
X127481689Y-149797467D01*
X127463496Y-149799500D01*
X102537080Y-149799500D01*
X102519759Y-149797534D01*
X102514190Y-149797524D01*
X102500359Y-149794344D01*
X102486517Y-149797477D01*
X102472329Y-149797452D01*
X102472330Y-149796703D01*
X102464390Y-149797346D01*
X102230433Y-149783194D01*
X102215329Y-149781360D01*
X101957192Y-149734055D01*
X101942419Y-149730414D01*
X101929350Y-149726341D01*
X101691855Y-149652335D01*
X101677637Y-149646943D01*
X101438319Y-149539234D01*
X101424848Y-149532164D01*
X101200259Y-149396395D01*
X101187737Y-149387752D01*
X100981143Y-149225896D01*
X100969755Y-149215806D01*
X100784194Y-149030245D01*
X100774104Y-149018857D01*
X100612248Y-148812263D01*
X100603605Y-148799741D01*
X100467836Y-148575152D01*
X100460765Y-148561679D01*
X100353057Y-148322363D01*
X100347663Y-148308140D01*
X100269586Y-148057581D01*
X100265945Y-148042808D01*
X100218640Y-147784671D01*
X100216806Y-147769567D01*
X100202692Y-147536242D01*
X100203288Y-147514226D01*
X100204042Y-147507677D01*
X100205655Y-147500718D01*
X100205656Y-147500000D01*
X100203654Y-147491225D01*
X100200500Y-147463210D01*
X100200500Y-127626000D01*
X100220502Y-127557879D01*
X100274158Y-127511386D01*
X100326500Y-127500000D01*
X110000000Y-127500000D01*
X110000000Y-112500000D01*
X100326500Y-112500000D01*
X100258379Y-112479998D01*
X100211886Y-112426342D01*
X100200500Y-112374000D01*
X100200500Y-92537371D01*
X100203755Y-92508918D01*
X100204043Y-92507676D01*
X100204044Y-92507669D01*
X100205655Y-92500718D01*
X100205656Y-92500000D01*
X100204075Y-92493067D01*
X100203283Y-92485993D01*
X100204466Y-92485861D01*
X100202671Y-92464111D01*
X100202682Y-92463939D01*
X100216806Y-92230433D01*
X100218640Y-92215329D01*
X100265945Y-91957192D01*
X100269586Y-91942419D01*
X100347663Y-91691860D01*
X100353059Y-91677633D01*
X100384995Y-91606676D01*
X100460766Y-91438319D01*
X100467836Y-91424848D01*
X100603605Y-91200259D01*
X100612248Y-91187737D01*
X100774104Y-90981143D01*
X100784194Y-90969755D01*
X100969755Y-90784194D01*
X100981143Y-90774104D01*
X101187737Y-90612248D01*
X101200259Y-90603605D01*
X101424848Y-90467836D01*
X101438321Y-90460765D01*
X101605915Y-90385337D01*
X101677637Y-90353057D01*
X101691855Y-90347665D01*
X101942419Y-90269586D01*
X101957192Y-90265945D01*
X102215329Y-90218640D01*
X102230433Y-90216806D01*
X102313183Y-90211800D01*
X102463947Y-90202681D01*
X102471768Y-90202451D01*
X102485811Y-90202476D01*
X102499641Y-90205656D01*
X102513480Y-90202524D01*
X102518311Y-90202533D01*
X102536504Y-90200500D01*
X127462920Y-90200500D01*
X127480241Y-90202466D01*
G37*
G04 #@! TD.AperFunction*
M02*
