G04 #@! TF.GenerationSoftware,KiCad,Pcbnew,(6.0.9)*
G04 #@! TF.CreationDate,2023-11-11T16:39:11+09:00*
G04 #@! TF.ProjectId,GGBLA125A_Evaluation_Board,4747424c-4131-4323-9541-5f4576616c75,rev?*
G04 #@! TF.SameCoordinates,Original*
G04 #@! TF.FileFunction,Copper,L1,Top*
G04 #@! TF.FilePolarity,Positive*
%FSLAX46Y46*%
G04 Gerber Fmt 4.6, Leading zero omitted, Abs format (unit mm)*
G04 Created by KiCad (PCBNEW (6.0.9)) date 2023-11-11 16:39:11*
%MOMM*%
%LPD*%
G01*
G04 APERTURE LIST*
G04 Aperture macros list*
%AMRoundRect*
0 Rectangle with rounded corners*
0 $1 Rounding radius*
0 $2 $3 $4 $5 $6 $7 $8 $9 X,Y pos of 4 corners*
0 Add a 4 corners polygon primitive as box body*
4,1,4,$2,$3,$4,$5,$6,$7,$8,$9,$2,$3,0*
0 Add four circle primitives for the rounded corners*
1,1,$1+$1,$2,$3*
1,1,$1+$1,$4,$5*
1,1,$1+$1,$6,$7*
1,1,$1+$1,$8,$9*
0 Add four rect primitives between the rounded corners*
20,1,$1+$1,$2,$3,$4,$5,0*
20,1,$1+$1,$4,$5,$6,$7,0*
20,1,$1+$1,$6,$7,$8,$9,0*
20,1,$1+$1,$8,$9,$2,$3,0*%
G04 Aperture macros list end*
G04 #@! TA.AperFunction,SMDPad,CuDef*
%ADD10R,3.600000X1.270000*%
G04 #@! TD*
G04 #@! TA.AperFunction,SMDPad,CuDef*
%ADD11R,4.200000X1.350000*%
G04 #@! TD*
G04 #@! TA.AperFunction,SMDPad,CuDef*
%ADD12RoundRect,0.140000X-0.140000X-0.170000X0.140000X-0.170000X0.140000X0.170000X-0.140000X0.170000X0*%
G04 #@! TD*
G04 #@! TA.AperFunction,SMDPad,CuDef*
%ADD13RoundRect,0.140000X0.170000X-0.140000X0.170000X0.140000X-0.170000X0.140000X-0.170000X-0.140000X0*%
G04 #@! TD*
G04 #@! TA.AperFunction,SMDPad,CuDef*
%ADD14RoundRect,0.135000X-0.185000X0.135000X-0.185000X-0.135000X0.185000X-0.135000X0.185000X0.135000X0*%
G04 #@! TD*
G04 #@! TA.AperFunction,SMDPad,CuDef*
%ADD15RoundRect,0.135000X0.185000X-0.135000X0.185000X0.135000X-0.185000X0.135000X-0.185000X-0.135000X0*%
G04 #@! TD*
G04 #@! TA.AperFunction,SMDPad,CuDef*
%ADD16R,2.900000X6.100000*%
G04 #@! TD*
G04 #@! TA.AperFunction,SMDPad,CuDef*
%ADD17R,2.900000X1.350000*%
G04 #@! TD*
G04 #@! TA.AperFunction,SMDPad,CuDef*
%ADD18RoundRect,0.135000X-0.135000X-0.185000X0.135000X-0.185000X0.135000X0.185000X-0.135000X0.185000X0*%
G04 #@! TD*
G04 #@! TA.AperFunction,ViaPad*
%ADD19C,0.600000*%
G04 #@! TD*
G04 #@! TA.AperFunction,Conductor*
%ADD20C,0.678000*%
G04 #@! TD*
G04 #@! TA.AperFunction,Conductor*
%ADD21C,1.300000*%
G04 #@! TD*
G04 APERTURE END LIST*
D10*
X127900000Y-120000000D03*
D11*
X127700000Y-117175000D03*
X127700000Y-122825000D03*
D12*
X111520000Y-120000000D03*
X112480000Y-120000000D03*
D13*
X113500000Y-120000000D03*
X113500000Y-119040000D03*
D14*
X100700000Y-126750000D03*
X100700000Y-127770000D03*
D15*
X100700000Y-113250000D03*
X100700000Y-112230000D03*
D16*
X101650000Y-120000000D03*
D17*
X101650000Y-124625000D03*
X101650000Y-115375000D03*
D18*
X114490000Y-120000000D03*
X115510000Y-120000000D03*
D13*
X110310000Y-119630000D03*
X110310000Y-118670000D03*
D19*
X126176000Y-123810000D03*
X127700000Y-123810000D03*
X129224000Y-123810000D03*
X126176000Y-116190000D03*
X127700000Y-116190000D03*
X129224000Y-116190000D03*
X129175000Y-121150000D03*
X128550000Y-121150000D03*
X126050000Y-121150000D03*
X127300000Y-121150000D03*
X127925000Y-121150000D03*
X126675000Y-121150000D03*
X129175000Y-118850000D03*
X128550000Y-118850000D03*
X127925000Y-118850000D03*
X127300000Y-118850000D03*
X126675000Y-118850000D03*
X126050000Y-118850000D03*
X122500000Y-114000000D03*
X115000000Y-114000000D03*
X122500000Y-126000000D03*
X115000000Y-126000000D03*
X120500000Y-123000000D03*
X116500000Y-123000000D03*
X124500000Y-123000000D03*
X112500000Y-123000000D03*
X112500000Y-117000000D03*
X116500000Y-117000000D03*
X120500000Y-117000000D03*
X124500000Y-117000000D03*
X115000000Y-100000000D03*
X122500000Y-95000000D03*
X122500000Y-105000000D03*
X115000000Y-110000000D03*
X107500000Y-105000000D03*
X115000000Y-105000000D03*
X122500000Y-110000000D03*
X107500000Y-100000000D03*
X107500000Y-110000000D03*
X122500000Y-100000000D03*
X107500000Y-95000000D03*
X115000000Y-95000000D03*
X107500000Y-145000000D03*
X115000000Y-145000000D03*
X122500000Y-145000000D03*
X122500000Y-140000000D03*
X115000000Y-140000000D03*
X107500000Y-140000000D03*
X107500000Y-135000000D03*
X115000000Y-135000000D03*
X122500000Y-135000000D03*
X122500000Y-130000000D03*
X107500000Y-130000000D03*
X115000000Y-130000000D03*
X101500000Y-148500000D03*
X128500000Y-148500000D03*
X128500000Y-91500000D03*
X101500000Y-91500000D03*
X118810000Y-90790000D03*
X126430000Y-90790000D03*
X123890000Y-90790000D03*
X113730000Y-90790000D03*
X106110000Y-90790000D03*
X108650000Y-90790000D03*
X103570000Y-90790000D03*
X121350000Y-90790000D03*
X111190000Y-90790000D03*
X116270000Y-90790000D03*
X106110000Y-149210000D03*
X111190000Y-149210000D03*
X108650000Y-149210000D03*
X103570000Y-149210000D03*
X121350000Y-149210000D03*
X126430000Y-149210000D03*
X123890000Y-149210000D03*
X118810000Y-149210000D03*
X113730000Y-149210000D03*
X116270000Y-149210000D03*
X129224000Y-113904000D03*
X129224000Y-126096000D03*
X129224000Y-108824000D03*
X129224000Y-93584000D03*
X129224000Y-101204000D03*
X129224000Y-106284000D03*
X129224000Y-96124000D03*
X129224000Y-98664000D03*
X129224000Y-103744000D03*
X129224000Y-111364000D03*
X129224000Y-131176000D03*
X129224000Y-146416000D03*
X129224000Y-138796000D03*
X129224000Y-133716000D03*
X129224000Y-143876000D03*
X129224000Y-141336000D03*
X129224000Y-136256000D03*
X129224000Y-128636000D03*
X100776000Y-93584000D03*
X100776000Y-108824000D03*
X100776000Y-101204000D03*
X100776000Y-96124000D03*
X100776000Y-106284000D03*
X100776000Y-103744000D03*
X100776000Y-98664000D03*
X100776000Y-143876000D03*
X100776000Y-141336000D03*
X100776000Y-138796000D03*
X100776000Y-146416000D03*
X100776000Y-136256000D03*
X100776000Y-133716000D03*
X100776000Y-131176000D03*
X100776000Y-128636000D03*
X100776000Y-111364000D03*
X122375000Y-120850000D03*
X111775000Y-121000000D03*
X124250000Y-119150000D03*
X116125000Y-120850000D03*
X103350000Y-127800000D03*
X123000000Y-119150000D03*
X104650000Y-127800000D03*
X107900000Y-112200000D03*
X110300000Y-122800000D03*
X110550000Y-121175000D03*
X102700000Y-127800000D03*
X114875000Y-119150000D03*
X110300000Y-115250000D03*
X110300000Y-116550000D03*
X116125000Y-119150000D03*
X121750000Y-120850000D03*
X114250000Y-119150000D03*
X115500000Y-119150000D03*
X121125000Y-120850000D03*
X112750000Y-119150000D03*
X110300000Y-123450000D03*
X116750000Y-119150000D03*
X107900000Y-127800000D03*
X110300000Y-114600000D03*
X118000000Y-119150000D03*
X106600000Y-127800000D03*
X103350000Y-112200000D03*
X107250000Y-112200000D03*
X118625000Y-119150000D03*
X105300000Y-127800000D03*
X110300000Y-125400000D03*
X114875000Y-120850000D03*
X119875000Y-120850000D03*
X120500000Y-119150000D03*
X121125000Y-119150000D03*
X110300000Y-127350000D03*
X119250000Y-120850000D03*
X108550000Y-112200000D03*
X101400000Y-127800000D03*
X112125000Y-119150000D03*
X124250000Y-120850000D03*
X113500000Y-118450000D03*
X110300000Y-126700000D03*
X110300000Y-115900000D03*
X110300000Y-126050000D03*
X111550000Y-118875000D03*
X104000000Y-127800000D03*
X110300000Y-124100000D03*
X102050000Y-112200000D03*
X110300000Y-113950000D03*
X113000000Y-120850000D03*
X118000000Y-120850000D03*
X112375000Y-120850000D03*
X106600000Y-112200000D03*
X105950000Y-127800000D03*
X113625000Y-120850000D03*
X105300000Y-112200000D03*
X123625000Y-119150000D03*
X104000000Y-112200000D03*
X110925000Y-118825000D03*
X109850000Y-112200000D03*
X124875000Y-120850000D03*
X110300000Y-122150000D03*
X105950000Y-112200000D03*
X102700000Y-112200000D03*
X124875000Y-119150000D03*
X110300000Y-117850000D03*
X119875000Y-119150000D03*
X123625000Y-120850000D03*
X107250000Y-127800000D03*
X110300000Y-124750000D03*
X101400000Y-112200000D03*
X119250000Y-119150000D03*
X125500000Y-119150000D03*
X121750000Y-119150000D03*
X118625000Y-120850000D03*
X123000000Y-120850000D03*
X125500000Y-120850000D03*
X110300000Y-113300000D03*
X109200000Y-112200000D03*
X109850000Y-127800000D03*
X120500000Y-120850000D03*
X104650000Y-112200000D03*
X108550000Y-127800000D03*
X110300000Y-117200000D03*
X116750000Y-120850000D03*
X114250000Y-120850000D03*
X115500000Y-120850000D03*
X110300000Y-112650000D03*
X122375000Y-119150000D03*
X117375000Y-119150000D03*
X102050000Y-127800000D03*
X111175000Y-121175000D03*
X109200000Y-127800000D03*
X117375000Y-120850000D03*
D20*
X115510000Y-120000000D02*
X127900000Y-120000000D01*
D21*
X101650000Y-120000000D02*
X111180000Y-120000000D01*
D20*
X112480000Y-120000000D02*
X114490000Y-120000000D01*
G04 #@! TA.AperFunction,Conductor*
G36*
X103042121Y-123970002D02*
G01*
X103088614Y-124023658D01*
X103100000Y-124076000D01*
X103100000Y-125174000D01*
X103079998Y-125242121D01*
X103026342Y-125288614D01*
X102974000Y-125300000D01*
X101200000Y-125300000D01*
X101200000Y-126894000D01*
X101179998Y-126962121D01*
X101126342Y-127008614D01*
X101074000Y-127020000D01*
X100326500Y-127020000D01*
X100258379Y-126999998D01*
X100211886Y-126946342D01*
X100200500Y-126894000D01*
X100200500Y-124076000D01*
X100220502Y-124007879D01*
X100274158Y-123961386D01*
X100326500Y-123950000D01*
X102974000Y-123950000D01*
X103042121Y-123970002D01*
G37*
G04 #@! TD.AperFunction*
G04 #@! TA.AperFunction,Conductor*
G36*
X101142121Y-113000002D02*
G01*
X101188614Y-113053658D01*
X101200000Y-113106000D01*
X101200000Y-114700000D01*
X102974000Y-114700000D01*
X103042121Y-114720002D01*
X103088614Y-114773658D01*
X103100000Y-114826000D01*
X103100000Y-115924000D01*
X103079998Y-115992121D01*
X103026342Y-116038614D01*
X102974000Y-116050000D01*
X100326500Y-116050000D01*
X100258379Y-116029998D01*
X100211886Y-115976342D01*
X100200500Y-115924000D01*
X100200500Y-113106000D01*
X100220502Y-113037879D01*
X100274158Y-112991386D01*
X100326500Y-112980000D01*
X101074000Y-112980000D01*
X101142121Y-113000002D01*
G37*
G04 #@! TD.AperFunction*
G04 #@! TA.AperFunction,Conductor*
G36*
X115086226Y-120367856D02*
G01*
X115094579Y-120377496D01*
X115095935Y-120380404D01*
X115179596Y-120464065D01*
X115189588Y-120468725D01*
X115189589Y-120468725D01*
X115256440Y-120499898D01*
X115286827Y-120514068D01*
X115335684Y-120520500D01*
X115349767Y-120520500D01*
X115384920Y-120525503D01*
X115430447Y-120538730D01*
X115437446Y-120539244D01*
X115438625Y-120539331D01*
X115438636Y-120539331D01*
X115440932Y-120539500D01*
X125774559Y-120539500D01*
X125842680Y-120559502D01*
X125889173Y-120613158D01*
X125899500Y-120651473D01*
X125899500Y-120654748D01*
X125911133Y-120713231D01*
X125955448Y-120779552D01*
X126021769Y-120823867D01*
X126033938Y-120826288D01*
X126033939Y-120826288D01*
X126069599Y-120833381D01*
X126080252Y-120835500D01*
X129673500Y-120835500D01*
X129741621Y-120855502D01*
X129788114Y-120909158D01*
X129799500Y-120961500D01*
X129799500Y-147462920D01*
X129797534Y-147480241D01*
X129797524Y-147485810D01*
X129794344Y-147499641D01*
X129797477Y-147513483D01*
X129797452Y-147527671D01*
X129796703Y-147527670D01*
X129797346Y-147535610D01*
X129783194Y-147769567D01*
X129781360Y-147784671D01*
X129734055Y-148042808D01*
X129730414Y-148057581D01*
X129652337Y-148308140D01*
X129646943Y-148322363D01*
X129539235Y-148561679D01*
X129532164Y-148575152D01*
X129396395Y-148799741D01*
X129387752Y-148812263D01*
X129225896Y-149018857D01*
X129215806Y-149030245D01*
X129030245Y-149215806D01*
X129018857Y-149225896D01*
X128812263Y-149387752D01*
X128799741Y-149396395D01*
X128575152Y-149532164D01*
X128561681Y-149539234D01*
X128322363Y-149646943D01*
X128308145Y-149652335D01*
X128070650Y-149726341D01*
X128057581Y-149730414D01*
X128042808Y-149734055D01*
X127784671Y-149781360D01*
X127769567Y-149783194D01*
X127686817Y-149788200D01*
X127536053Y-149797319D01*
X127528232Y-149797549D01*
X127514189Y-149797524D01*
X127500359Y-149794344D01*
X127486520Y-149797476D01*
X127481689Y-149797467D01*
X127463496Y-149799500D01*
X102537080Y-149799500D01*
X102519759Y-149797534D01*
X102514190Y-149797524D01*
X102500359Y-149794344D01*
X102486517Y-149797477D01*
X102472329Y-149797452D01*
X102472330Y-149796703D01*
X102464390Y-149797346D01*
X102230433Y-149783194D01*
X102215329Y-149781360D01*
X101957192Y-149734055D01*
X101942419Y-149730414D01*
X101929350Y-149726341D01*
X101691855Y-149652335D01*
X101677637Y-149646943D01*
X101438319Y-149539234D01*
X101424848Y-149532164D01*
X101200259Y-149396395D01*
X101187737Y-149387752D01*
X100981143Y-149225896D01*
X100969755Y-149215806D01*
X100784194Y-149030245D01*
X100774104Y-149018857D01*
X100612248Y-148812263D01*
X100603605Y-148799741D01*
X100467836Y-148575152D01*
X100460765Y-148561679D01*
X100353057Y-148322363D01*
X100347663Y-148308140D01*
X100269586Y-148057581D01*
X100265945Y-148042808D01*
X100218640Y-147784671D01*
X100216806Y-147769567D01*
X100202692Y-147536242D01*
X100203288Y-147514226D01*
X100204042Y-147507677D01*
X100205655Y-147500718D01*
X100205656Y-147500000D01*
X100203654Y-147491225D01*
X100200500Y-147463210D01*
X100200500Y-127626000D01*
X100220502Y-127557879D01*
X100274158Y-127511386D01*
X100326500Y-127500000D01*
X110000000Y-127500000D01*
X110000000Y-120976500D01*
X110020002Y-120908379D01*
X110073658Y-120861886D01*
X110126000Y-120850500D01*
X111226164Y-120850500D01*
X111363709Y-120835558D01*
X111538848Y-120776617D01*
X111697244Y-120681443D01*
X111702206Y-120676751D01*
X111826549Y-120559165D01*
X111826551Y-120559163D01*
X111831507Y-120554476D01*
X111835339Y-120548838D01*
X111835342Y-120548834D01*
X111912371Y-120435490D01*
X111967204Y-120390392D01*
X112037715Y-120382098D01*
X112105678Y-120417218D01*
X112141684Y-120453224D01*
X112151676Y-120457883D01*
X112151677Y-120457884D01*
X112174926Y-120468725D01*
X112250513Y-120503972D01*
X112282902Y-120508236D01*
X112296413Y-120510015D01*
X112315119Y-120513940D01*
X112394110Y-120536889D01*
X112400447Y-120538730D01*
X112407446Y-120539244D01*
X112408625Y-120539331D01*
X112408636Y-120539331D01*
X112410932Y-120539500D01*
X114527026Y-120539500D01*
X114531273Y-120538918D01*
X114531276Y-120538918D01*
X114627934Y-120525677D01*
X114636446Y-120524511D01*
X114637367Y-120524112D01*
X114656126Y-120521543D01*
X114656075Y-120520770D01*
X114660195Y-120520500D01*
X114664316Y-120520500D01*
X114713173Y-120514068D01*
X114743561Y-120499898D01*
X114810411Y-120468725D01*
X114810412Y-120468725D01*
X114820404Y-120464065D01*
X114904065Y-120380404D01*
X114904753Y-120381092D01*
X114952247Y-120343131D01*
X115022867Y-120335823D01*
X115086226Y-120367856D01*
G37*
G04 #@! TD.AperFunction*
G04 #@! TA.AperFunction,Conductor*
G36*
X127480241Y-90202466D02*
G01*
X127485810Y-90202476D01*
X127499641Y-90205656D01*
X127513483Y-90202523D01*
X127527671Y-90202548D01*
X127527670Y-90203297D01*
X127535610Y-90202654D01*
X127769567Y-90216806D01*
X127784671Y-90218640D01*
X128042808Y-90265945D01*
X128057581Y-90269586D01*
X128308145Y-90347665D01*
X128322363Y-90353057D01*
X128394085Y-90385337D01*
X128561679Y-90460765D01*
X128575152Y-90467836D01*
X128799741Y-90603605D01*
X128812263Y-90612248D01*
X129018857Y-90774104D01*
X129030245Y-90784194D01*
X129215806Y-90969755D01*
X129225896Y-90981143D01*
X129387752Y-91187737D01*
X129396395Y-91200259D01*
X129532164Y-91424848D01*
X129539234Y-91438319D01*
X129615006Y-91606676D01*
X129646941Y-91677633D01*
X129652337Y-91691860D01*
X129730414Y-91942419D01*
X129734055Y-91957192D01*
X129781360Y-92215329D01*
X129783194Y-92230433D01*
X129797319Y-92463939D01*
X129797549Y-92471768D01*
X129797524Y-92485811D01*
X129794344Y-92499641D01*
X129797476Y-92513480D01*
X129797467Y-92518311D01*
X129799500Y-92536504D01*
X129799500Y-119038500D01*
X129779498Y-119106621D01*
X129725842Y-119153114D01*
X129673500Y-119164500D01*
X126080252Y-119164500D01*
X126074184Y-119165707D01*
X126033939Y-119173712D01*
X126033938Y-119173712D01*
X126021769Y-119176133D01*
X125955448Y-119220448D01*
X125911133Y-119286769D01*
X125899500Y-119345252D01*
X125899500Y-119347969D01*
X125873370Y-119412682D01*
X125815415Y-119453692D01*
X125774559Y-119460500D01*
X115472974Y-119460500D01*
X115468727Y-119461082D01*
X115468724Y-119461082D01*
X115382977Y-119472828D01*
X115363554Y-119475489D01*
X115362633Y-119475888D01*
X115343874Y-119478457D01*
X115343925Y-119479230D01*
X115339805Y-119479500D01*
X115335684Y-119479500D01*
X115286827Y-119485932D01*
X115278091Y-119490006D01*
X115278090Y-119490006D01*
X115210333Y-119521602D01*
X115179596Y-119535935D01*
X115095935Y-119619596D01*
X115095247Y-119618908D01*
X115047753Y-119656869D01*
X114977133Y-119664177D01*
X114913774Y-119632144D01*
X114905421Y-119622504D01*
X114904065Y-119619596D01*
X114820404Y-119535935D01*
X114789667Y-119521602D01*
X114721910Y-119490006D01*
X114721909Y-119490006D01*
X114713173Y-119485932D01*
X114664316Y-119479500D01*
X114650233Y-119479500D01*
X114615080Y-119474497D01*
X114607985Y-119472436D01*
X114569553Y-119461270D01*
X114562554Y-119460756D01*
X114561375Y-119460669D01*
X114561364Y-119460669D01*
X114559068Y-119460500D01*
X112442974Y-119460500D01*
X112438727Y-119461082D01*
X112438724Y-119461082D01*
X112342064Y-119474323D01*
X112342062Y-119474323D01*
X112333554Y-119475489D01*
X112323042Y-119480038D01*
X112317791Y-119482310D01*
X112284198Y-119491594D01*
X112269863Y-119493481D01*
X112250513Y-119496028D01*
X112241779Y-119500101D01*
X112241778Y-119500101D01*
X112151677Y-119542116D01*
X112141684Y-119546776D01*
X112105936Y-119582524D01*
X112043624Y-119616550D01*
X111972809Y-119611485D01*
X111915973Y-119568938D01*
X111905385Y-119552196D01*
X111892440Y-119527644D01*
X111892438Y-119527641D01*
X111889254Y-119521602D01*
X111769980Y-119380460D01*
X111723930Y-119345252D01*
X111628601Y-119272367D01*
X111628597Y-119272364D01*
X111623180Y-119268223D01*
X111617000Y-119265341D01*
X111616998Y-119265340D01*
X111461880Y-119193007D01*
X111461877Y-119193006D01*
X111455703Y-119190127D01*
X111449058Y-119188642D01*
X111449053Y-119188640D01*
X111290113Y-119153114D01*
X111275363Y-119149817D01*
X111269693Y-119149500D01*
X110126000Y-119149500D01*
X110057879Y-119129498D01*
X110011386Y-119075842D01*
X110000000Y-119023500D01*
X110000000Y-112500000D01*
X100326500Y-112500000D01*
X100258379Y-112479998D01*
X100211886Y-112426342D01*
X100200500Y-112374000D01*
X100200500Y-92537371D01*
X100203755Y-92508918D01*
X100204043Y-92507676D01*
X100204044Y-92507669D01*
X100205655Y-92500718D01*
X100205656Y-92500000D01*
X100204075Y-92493067D01*
X100203283Y-92485993D01*
X100204466Y-92485861D01*
X100202671Y-92464111D01*
X100202682Y-92463939D01*
X100216806Y-92230433D01*
X100218640Y-92215329D01*
X100265945Y-91957192D01*
X100269586Y-91942419D01*
X100347663Y-91691860D01*
X100353059Y-91677633D01*
X100384995Y-91606676D01*
X100460766Y-91438319D01*
X100467836Y-91424848D01*
X100603605Y-91200259D01*
X100612248Y-91187737D01*
X100774104Y-90981143D01*
X100784194Y-90969755D01*
X100969755Y-90784194D01*
X100981143Y-90774104D01*
X101187737Y-90612248D01*
X101200259Y-90603605D01*
X101424848Y-90467836D01*
X101438321Y-90460765D01*
X101605915Y-90385337D01*
X101677637Y-90353057D01*
X101691855Y-90347665D01*
X101942419Y-90269586D01*
X101957192Y-90265945D01*
X102215329Y-90218640D01*
X102230433Y-90216806D01*
X102313183Y-90211800D01*
X102463947Y-90202681D01*
X102471768Y-90202451D01*
X102485811Y-90202476D01*
X102499641Y-90205656D01*
X102513480Y-90202524D01*
X102518311Y-90202533D01*
X102536504Y-90200500D01*
X127462920Y-90200500D01*
X127480241Y-90202466D01*
G37*
G04 #@! TD.AperFunction*
M02*
