M48
; DRILL file {KiCad (6.0.9)} date Sat Nov 11 16:40:49 2023
; FORMAT={2:4/ absolute / inch / suppress leading zeros}
; #@! TF.CreationDate,2023-11-11T16:40:49+09:00
; #@! TF.GenerationSoftware,Kicad,Pcbnew,(6.0.9)
; #@! TF.FileFunction,MixedPlating,1,4
FMAT,2
INCH,TZ
; #@! TA.AperFunction,Plated,PTH,ViaDrill
T1C0.0118
%
G90
G05
T1
X306Y-1411
X306Y-2411
X306Y-3411
X306Y-4411
X306Y-5411
X306Y-6411
X306Y-7411
X306Y-8411
X306Y-15211
X306Y-16211
X306Y-17211
X306Y-18211
X306Y-19211
X306Y-20211
X306Y-21211
X306Y-22211
X551Y-8740
X551Y-14882
X591Y-591
X591Y-23031
X807Y-8740
X807Y-14882
X1063Y-8740
X1063Y-14882
X1319Y-8740
X1319Y-14882
X1406Y-311
X1406Y-23311
X1575Y-8740
X1575Y-14882
X1831Y-8740
X1831Y-14882
X2087Y-8740
X2087Y-14882
X2343Y-8740
X2343Y-14882
X2406Y-311
X2406Y-23311
X2598Y-8740
X2598Y-14882
X2854Y-8740
X2854Y-14882
X2953Y-1969
X2953Y-3937
X2953Y-5906
X2953Y-7874
X2953Y-15748
X2953Y-17717
X2953Y-19685
X2953Y-21654
X3110Y-8740
X3110Y-14882
X3366Y-8740
X3366Y-14882
X3406Y-311
X3406Y-23311
X3622Y-8740
X3622Y-14882
X3878Y-8740
X3878Y-14882
X4055Y-8917
X4055Y-9173
X4055Y-9429
X4055Y-9685
X4055Y-9941
X4055Y-10197
X4055Y-10453
X4055Y-10709
X4055Y-10965
X4055Y-12657
X4055Y-12913
X4055Y-13169
X4055Y-13425
X4055Y-13681
X4055Y-13937
X4055Y-14193
X4055Y-14449
X4055Y-14705
X4154Y-12274
X4301Y-11348
X4400Y-12274
X4406Y-311
X4406Y-23311
X4547Y-11368
X4636Y-12205
X4774Y-11476
X4872Y-12146
X4921Y-10630
X4921Y-12992
X5020Y-11476
X5118Y-12146
X5315Y-11201
X5364Y-12146
X5406Y-311
X5406Y-23311
X5610Y-11476
X5610Y-12146
X5856Y-11476
X5856Y-12146
X5906Y-1969
X5906Y-3937
X5906Y-5906
X5906Y-7874
X5906Y-9449
X5906Y-14173
X5906Y-15748
X5906Y-17717
X5906Y-19685
X5906Y-21654
X6102Y-11476
X6102Y-12146
X6348Y-11476
X6348Y-12146
X6406Y-311
X6406Y-23311
X6496Y-10630
X6496Y-12992
X6594Y-11476
X6594Y-12146
X6841Y-11476
X6841Y-12146
X7087Y-11476
X7087Y-12146
X7333Y-11476
X7333Y-12146
X7406Y-311
X7406Y-23311
X7579Y-11476
X7579Y-12146
X7825Y-11476
X7825Y-12146
X8071Y-10630
X8071Y-11476
X8071Y-12146
X8071Y-12992
X8317Y-11476
X8317Y-12146
X8406Y-311
X8406Y-23311
X8563Y-11476
X8563Y-12146
X8809Y-11476
X8809Y-12146
X8858Y-1969
X8858Y-3937
X8858Y-5906
X8858Y-7874
X8858Y-9449
X8858Y-14173
X8858Y-15748
X8858Y-17717
X8858Y-19685
X8858Y-21654
X9055Y-11476
X9055Y-12146
X9301Y-11476
X9301Y-12146
X9406Y-311
X9406Y-23311
X9547Y-11476
X9547Y-12146
X9646Y-10630
X9646Y-12992
X9793Y-11476
X9793Y-12146
X10039Y-11476
X10039Y-12146
X10256Y-11358
X10256Y-12264
X10306Y-10311
X10306Y-13311
X10406Y-311
X10406Y-23311
X10502Y-11358
X10502Y-12264
X10748Y-11358
X10748Y-12264
X10906Y-10311
X10906Y-13311
X10994Y-11358
X10994Y-12264
X11220Y-591
X11220Y-23031
X11240Y-11358
X11240Y-12264
X11486Y-11358
X11486Y-12264
X11506Y-1411
X11506Y-2411
X11506Y-3411
X11506Y-4411
X11506Y-5411
X11506Y-6411
X11506Y-7411
X11506Y-8411
X11506Y-9411
X11506Y-10311
X11506Y-13311
X11506Y-14211
X11506Y-15211
X11506Y-16211
X11506Y-17211
X11506Y-18211
X11506Y-19211
X11506Y-20211
X11506Y-21211
X11506Y-22211
T0
M30
