M48
; DRILL file {KiCad (6.0.9)} date Sat Nov 11 19:46:29 2023
; FORMAT={2:4/ absolute / inch / suppress leading zeros}
; #@! TF.CreationDate,2023-11-11T19:46:29+09:00
; #@! TF.GenerationSoftware,Kicad,Pcbnew,(6.0.9)
; #@! TF.FileFunction,MixedPlating,1,4
FMAT,2
INCH,TZ
; #@! TA.AperFunction,Plated,PTH,ViaDrill
T1C0.0118
; #@! TA.AperFunction,Plated,PTH,ViaDrill
T2C0.0157
; #@! TA.AperFunction,Plated,PTH,ComponentDrill
T3C0.0157
; #@! TA.AperFunction,Plated,PTH,ComponentDrill
T4C0.0236
; #@! TA.AperFunction,Plated,PTH,ComponentDrill
T5C0.0394
; #@! TA.AperFunction,Plated,PTH,ComponentDrill
T6C0.0866
; #@! TA.AperFunction,NonPlated,NPTH,ComponentDrill
T7C0.0256
%
G90
G05
T1
X311Y-1311
X311Y-2311
X311Y-3311
X311Y-4311
X311Y-5311
X311Y-6311
X311Y-7311
X311Y-8311
X311Y-15311
X311Y-16311
X311Y-17311
X311Y-18311
X311Y-19311
X311Y-20311
X311Y-21311
X311Y-22311
X551Y-8740
X551Y-14882
X561Y-561
X561Y-23061
X807Y-8740
X807Y-14882
X1063Y-8740
X1063Y-14882
X1311Y-311
X1311Y-23311
X1319Y-8740
X1319Y-14882
X1575Y-8740
X1575Y-14882
X1831Y-8740
X1831Y-14882
X2087Y-8740
X2087Y-14882
X2311Y-311
X2311Y-23311
X2343Y-8740
X2343Y-14882
X2598Y-8740
X2598Y-14882
X2854Y-8740
X2854Y-14882
X3110Y-8740
X3110Y-14882
X3311Y-311
X3311Y-2311
X3311Y-4311
X3311Y-6311
X3311Y-7811
X3311Y-15811
X3311Y-17311
X3311Y-19311
X3311Y-21311
X3311Y-23311
X3366Y-8740
X3366Y-14882
X3622Y-8740
X3622Y-14882
X3878Y-8740
X3878Y-14882
X4055Y-8917
X4055Y-9173
X4055Y-9429
X4055Y-9685
X4055Y-9941
X4055Y-10197
X4055Y-10453
X4055Y-10709
X4055Y-10965
X4055Y-12657
X4055Y-12913
X4055Y-13169
X4055Y-13425
X4055Y-13681
X4055Y-13937
X4055Y-14193
X4055Y-14449
X4055Y-14705
X4154Y-12274
X4301Y-11348
X4311Y-311
X4311Y-23311
X4400Y-12274
X4547Y-11368
X4636Y-12205
X4774Y-11476
X4811Y-10311
X4811Y-13311
X4872Y-12146
X5020Y-11476
X5118Y-12146
X5311Y-311
X5311Y-23311
X5315Y-11201
X5364Y-12146
X5610Y-11476
X5610Y-12146
X5856Y-11476
X5856Y-12146
X6102Y-11476
X6102Y-12146
X6311Y-311
X6311Y-2311
X6311Y-4311
X6311Y-6311
X6311Y-8311
X6311Y-10311
X6311Y-13311
X6311Y-15311
X6311Y-17311
X6311Y-19311
X6311Y-21311
X6311Y-23311
X6348Y-11476
X6348Y-12146
X6594Y-11476
X6594Y-12146
X6841Y-11476
X6841Y-12146
X7087Y-11476
X7087Y-12146
X7311Y-311
X7311Y-23311
X7333Y-11476
X7333Y-12146
X7579Y-11476
X7579Y-12146
X7811Y-10311
X7811Y-13311
X7825Y-11476
X7825Y-12146
X8071Y-11476
X8071Y-12146
X8311Y-311
X8311Y-23311
X8317Y-11476
X8317Y-12146
X8563Y-11476
X8563Y-12146
X8809Y-11476
X8809Y-12146
X8811Y-19311
X8811Y-21311
X9055Y-11476
X9055Y-12146
X9301Y-11476
X9301Y-12146
X9311Y-311
X9311Y-2311
X9311Y-4311
X9311Y-6311
X9311Y-8311
X9311Y-10311
X9311Y-13311
X9311Y-15311
X9311Y-17311
X9547Y-11476
X9547Y-12146
X9793Y-11476
X9793Y-12146
X10039Y-11476
X10039Y-12146
X10285Y-11476
X10285Y-12146
X10311Y-311
X10311Y-14311
X10361Y-19511
X10531Y-12146
X10561Y-12811
X10630Y-11476
X10750Y-11100
X10761Y-20711
X10778Y-12146
X10811Y-3311
X10811Y-8061
X10811Y-9561
X11000Y-12400
X11011Y-17211
X11011Y-18511
X11061Y-4811
X11150Y-10700
X11200Y-22000
X11270Y-11390
X11270Y-12230
X11300Y-13400
X11300Y-19100
X11300Y-19750
X11311Y-6311
X11311Y-14311
X11311Y-15811
X11350Y-12453
X11488Y-12646
X11600Y-23311
X11673Y-12795
X11750Y-11450
X11800Y-21700
X11894Y-12886
X11940Y-12080
X12100Y-20200
X12120Y-12240
X12130Y-12910
X12200Y-8000
X12200Y-9400
X12200Y-10700
X12200Y-13600
X12220Y-11780
X12250Y-2000
X12250Y-3650
X12360Y-12240
X12370Y-12910
X12450Y-18450
X12495Y-11011
X12500Y-15350
X12500Y-16300
X12500Y-18100
X12500Y-23311
X12550Y-2375
X12600Y-12240
X12600Y-14050
X12600Y-21800
X12610Y-12910
X12711Y-5311
X12800Y-7050
X12800Y-8000
X12800Y-8700
X12800Y-9400
X12800Y-10100
X12800Y-10800
X12840Y-12240
X12850Y-11661
X12850Y-12910
X13000Y-13600
X13000Y-14500
X13080Y-12240
X13090Y-12910
X13100Y-1500
X13100Y-4500
X13150Y-20450
X13160Y-8600
X13200Y-6200
X13209Y-8355
X13209Y-8845
X13250Y-19050
X13300Y-2700
X13300Y-3900
X13300Y-7450
X13300Y-15350
X13300Y-16150
X13300Y-17000
X13300Y-17550
X13300Y-21900
X13320Y-12240
X13330Y-12910
X13440Y-11740
X13440Y-12000
X13460Y-9380
X13460Y-9820
X13460Y-10060
X13460Y-10300
X13460Y-10540
X13460Y-10780
X13460Y-11020
X13460Y-11260
X13460Y-11500
X13500Y-4900
X13500Y-23311
X13555Y-8009
X13560Y-12240
X13570Y-12910
X13600Y-311
X13750Y-20500
X13800Y-5800
X13800Y-6950
X13800Y-7960
X13810Y-12910
X13850Y-2400
X13850Y-13600
X13850Y-14500
X13900Y-3500
X13900Y-4500
X14000Y-21700
X14045Y-8009
X14050Y-12910
X14100Y-5500
X14100Y-6100
X14100Y-7600
X14140Y-9320
X14140Y-9560
X14140Y-9800
X14140Y-10600
X14140Y-10840
X14140Y-11080
X14150Y-15350
X14150Y-16150
X14150Y-17000
X14150Y-18150
X14290Y-18720
X14350Y-2100
X14350Y-2950
X14391Y-8355
X14391Y-8845
X14440Y-8600
X14500Y-311
X14500Y-9700
X14500Y-23311
X14600Y-11000
X14600Y-13200
X14650Y-22250
X14700Y-1350
X14700Y-20400
X14700Y-21200
X14800Y-4400
X14800Y-6500
X14800Y-7600
X14900Y-5500
X14900Y-13400
X14950Y-8700
X14950Y-9300
X15000Y-15000
X15000Y-16150
X15000Y-17000
X15000Y-17700
X15000Y-19100
X15100Y-1800
X15100Y-8100
X15100Y-11000
X15150Y-21450
X15200Y-4000
X15200Y-5800
X15220Y-10020
X15400Y-11550
X15470Y-7600
X15500Y-311
X15500Y-18600
X15500Y-23311
X15550Y-10600
X15660Y-12920
X15700Y-5300
X15700Y-14800
X15700Y-15700
X15700Y-17000
X15700Y-19300
X15700Y-21400
X15750Y-8400
X15750Y-13500
X15900Y-6400
X15900Y-11660
X15900Y-12340
X15920Y-11320
X15950Y-12700
X16000Y-20500
X16030Y-7600
X16100Y-3100
X16100Y-4900
X16100Y-10974
X16140Y-11660
X16140Y-12340
X16200Y-21600
X16250Y-16250
X16300Y-17800
X16350Y-5950
X16350Y-8800
X16380Y-8070
X16380Y-11660
X16380Y-12340
X16400Y-18600
X16420Y-11350
X16420Y-12650
X16450Y-10850
X16500Y-311
X16500Y-1400
X16500Y-5300
X16500Y-23311
X16550Y-19450
X16550Y-21500
X16600Y-13400
X16600Y-14800
X16600Y-15700
X16690Y-11350
X16690Y-12650
X16750Y-5550
X16800Y-4000
X16800Y-5000
X16850Y-6600
X16900Y-9900
X16930Y-11350
X16930Y-12650
X16950Y-19450
X17000Y-6250
X17000Y-9526
X17000Y-10274
X17000Y-10850
X17000Y-20450
X17050Y-21450
X17150Y-17100
X17150Y-17850
X17160Y-18720
X17170Y-11350
X17170Y-12650
X17180Y-12000
X17200Y-7450
X17200Y-9150
X17250Y-2550
X17300Y-13400
X17350Y-5900
X17350Y-21600
X17400Y-6700
X17400Y-8050
X17400Y-23311
X17410Y-11350
X17410Y-12650
X17450Y-15700
X17450Y-16150
X17500Y-311
X17500Y-10700
X17550Y-4750
X17640Y-12720
X17650Y-7450
X17653Y-11339
X17700Y-5550
X17750Y-17100
X17750Y-17850
X17750Y-18550
X17800Y-12900
X17809Y-14447
X17840Y-13140
X17840Y-13380
X17840Y-13620
X17890Y-11287
X17900Y-3100
X17900Y-4400
X17900Y-6250
X17900Y-8800
X17900Y-9500
X17972Y-12157
X18000Y-5900
X18000Y-6600
X18000Y-10400
X18004Y-11933
X18100Y-15300
X18100Y-19350
X18114Y-11201
X18161Y-12276
X18180Y-14700
X18223Y-11885
X18300Y-8050
X18300Y-8700
X18300Y-9300
X18300Y-9900
X18300Y-16250
X18300Y-17000
X18319Y-12457
X18320Y-20480
X18323Y-11079
X18350Y-1750
X18380Y-16630
X18400Y-4200
X18400Y-17400
X18433Y-12669
X18445Y-11787
X18500Y-311
X18500Y-5300
X18500Y-6500
X18500Y-12900
X18512Y-10925
X18520Y-13140
X18520Y-13380
X18520Y-13620
X18551Y-14447
X18650Y-19500
X18656Y-11668
X18673Y-10744
X18803Y-10539
X18850Y-2050
X18850Y-3750
X18850Y-11524
X18900Y-4700
X18900Y-13900
X18900Y-14300
X18900Y-20000
X18902Y-10319
X18947Y-6703
X18962Y-10084
X18986Y-7431
X18986Y-7672
X18986Y-7913
X18986Y-8155
X18986Y-8396
X18986Y-8637
X18986Y-8878
X18986Y-9119
X18986Y-9360
X18986Y-9601
X18986Y-9843
X19000Y-12200
X19000Y-15300
X19028Y-11362
X19100Y-18500
X19150Y-17150
X19188Y-11181
X19200Y-12800
X19200Y-13400
X19200Y-17900
X19200Y-19200
X19200Y-19600
X19300Y-3300
X19300Y-4300
X19320Y-6360
X19326Y-10984
X19350Y-20300
X19400Y-311
X19400Y-13900
X19439Y-10773
X19500Y-5300
X19500Y-11850
X19532Y-10551
X19601Y-10320
X19642Y-10083
X19650Y-1500
X19660Y-7431
X19660Y-7672
X19660Y-7913
X19660Y-8155
X19660Y-8396
X19660Y-8637
X19660Y-8878
X19660Y-9119
X19660Y-9360
X19660Y-9601
X19660Y-9843
X19700Y-6703
X19700Y-2150
X19700Y-2900
X19700Y-3900
X19700Y-4700
X19700Y-21200
X19900Y-12800
X19900Y-13900
X20000Y-11400
X20100Y-7000
X20100Y-16950
X20200Y-7450
X20300Y-1600
X20300Y-4455
X20300Y-5900
X20300Y-10800
X20300Y-14850
X20300Y-18855
X20300Y-20745
X20300Y-23311
X20450Y-17000
X20460Y-15160
X20460Y-16260
X20600Y-7850
X20600Y-8400
X20600Y-9000
X20600Y-9600
X20600Y-10200
X20600Y-11400
X20600Y-12200
X20600Y-13000
X20860Y-2920
X20900Y-1600
X20900Y-2300
X20900Y-16700
X20940Y-15500
X21100Y-7680
X21250Y-14750
X21250Y-16500
X21250Y-19400
X21310Y-9760
X21310Y-11380
X21310Y-12910
X21320Y-8210
X21360Y-5520
X21400Y-311
X21400Y-1300
X21500Y-18400
X21500Y-20600
X21500Y-22300
X21500Y-23311
X21580Y-13200
X21580Y-16320
X21631Y-14731
X21850Y-8450
X21850Y-10200
X21850Y-12050
X21850Y-20000
X21900Y-2600
X21900Y-3200
X21900Y-5850
X21900Y-18850
X22000Y-17900
X22040Y-15530
X22050Y-4950
X22100Y-8100
X22100Y-20700
X22150Y-4050
X22150Y-4500
X22350Y-6350
X22400Y-5350
X22450Y-3100
X22500Y-18600
X22500Y-19700
X22550Y-9250
X22550Y-10800
X22550Y-12350
X22591Y-2091
X22600Y-6600
X22660Y-8010
X22750Y-4650
X22750Y-5700
X22861Y-13961
X22961Y-14861
X23311Y-2561
X23311Y-4111
X23311Y-5161
X23311Y-6211
X23311Y-8461
X23311Y-9811
X23311Y-10811
X23311Y-11811
X23311Y-12811
X23311Y-15781
X23311Y-16811
X23311Y-17811
X23311Y-18561
X23311Y-19561
X23311Y-20561
X23311Y-21561
T2
X17772Y-12020
T3
X8799Y-22638
X8989Y-22178
X8989Y-23097
X9449Y-21988
X9449Y-23287
X9908Y-22178
X9908Y-23097
X10098Y-22638
X10768Y-984
X10958Y-525
X10958Y-1444
X11417Y-335
X11417Y-1634
X11877Y-525
X11877Y-1444
X12067Y-984
X21988Y-984
X21988Y-22638
X22178Y-525
X22178Y-1444
X22178Y-22178
X22178Y-23097
X22638Y-335
X22638Y-1634
X22638Y-21988
X22638Y-23287
X23097Y-525
X23097Y-1444
X23097Y-22178
X23097Y-23097
X23287Y-984
X23287Y-22638
T5
X11000Y-22800
X12000Y-22800
X13000Y-800
X13000Y-22800
X14000Y-800
X14000Y-22800
X15000Y-800
X15000Y-22800
X16000Y-800
X16000Y-22800
X17000Y-800
X17000Y-22800
X18000Y-800
X18000Y-22800
X19000Y-800
X19000Y-22800
X20000Y-800
X20000Y-22800
X21000Y-800
X21000Y-22800
T6
X9449Y-22638
X11417Y-984
X22638Y-984
X22638Y-22638
T7
X21150Y-4262
X21150Y-6538
X21150Y-18662
X21150Y-20938
T4
G00X20736Y-3699
M15
G01X21169Y-3699
M16
G05
G00X20736Y-7101
M15
G01X21169Y-7101
M16
G05
G00X20736Y-18099
M15
G01X21169Y-18099
M16
G05
G00X20736Y-21501
M15
G01X21169Y-21501
M16
G05
G00X22441Y-3699
M15
G01X22756Y-3699
M16
G05
G00X22441Y-7101
M15
G01X22756Y-7101
M16
G05
G00X22441Y-18099
M15
G01X22756Y-18099
M16
G05
G00X22441Y-21501
M15
G01X22756Y-21501
M16
G05
T0
M30
