G04 #@! TF.GenerationSoftware,KiCad,Pcbnew,(6.0.9)*
G04 #@! TF.CreationDate,2023-11-11T19:45:23+09:00*
G04 #@! TF.ProjectId,CLAS_Combo_Breakout,434c4153-5f43-46f6-9d62-6f5f42726561,rev?*
G04 #@! TF.SameCoordinates,Original*
G04 #@! TF.FileFunction,Soldermask,Top*
G04 #@! TF.FilePolarity,Negative*
%FSLAX46Y46*%
G04 Gerber Fmt 4.6, Leading zero omitted, Abs format (unit mm)*
G04 Created by KiCad (PCBNEW (6.0.9)) date 2023-11-11 19:45:23*
%MOMM*%
%LPD*%
G01*
G04 APERTURE LIST*
G04 Aperture macros list*
%AMRoundRect*
0 Rectangle with rounded corners*
0 $1 Rounding radius*
0 $2 $3 $4 $5 $6 $7 $8 $9 X,Y pos of 4 corners*
0 Add a 4 corners polygon primitive as box body*
4,1,4,$2,$3,$4,$5,$6,$7,$8,$9,$2,$3,0*
0 Add four circle primitives for the rounded corners*
1,1,$1+$1,$2,$3*
1,1,$1+$1,$4,$5*
1,1,$1+$1,$6,$7*
1,1,$1+$1,$8,$9*
0 Add four rect primitives between the rounded corners*
20,1,$1+$1,$2,$3,$4,$5,0*
20,1,$1+$1,$4,$5,$6,$7,0*
20,1,$1+$1,$6,$7,$8,$9,0*
20,1,$1+$1,$8,$9,$2,$3,0*%
%AMOutline5P*
0 Free polygon, 5 corners , with rotation*
0 The origin of the aperture is its center*
0 number of corners: always 5*
0 $1 to $10 corner X, Y*
0 $11 Rotation angle, in degrees counterclockwise*
0 create outline with 5 corners*
4,1,5,$1,$2,$3,$4,$5,$6,$7,$8,$9,$10,$1,$2,$11*%
%AMOutline6P*
0 Free polygon, 6 corners , with rotation*
0 The origin of the aperture is its center*
0 number of corners: always 6*
0 $1 to $12 corner X, Y*
0 $13 Rotation angle, in degrees counterclockwise*
0 create outline with 6 corners*
4,1,6,$1,$2,$3,$4,$5,$6,$7,$8,$9,$10,$11,$12,$1,$2,$13*%
%AMOutline7P*
0 Free polygon, 7 corners , with rotation*
0 The origin of the aperture is its center*
0 number of corners: always 7*
0 $1 to $14 corner X, Y*
0 $15 Rotation angle, in degrees counterclockwise*
0 create outline with 7 corners*
4,1,7,$1,$2,$3,$4,$5,$6,$7,$8,$9,$10,$11,$12,$13,$14,$1,$2,$15*%
%AMOutline8P*
0 Free polygon, 8 corners , with rotation*
0 The origin of the aperture is its center*
0 number of corners: always 8*
0 $1 to $16 corner X, Y*
0 $17 Rotation angle, in degrees counterclockwise*
0 create outline with 8 corners*
4,1,8,$1,$2,$3,$4,$5,$6,$7,$8,$9,$10,$11,$12,$13,$14,$15,$16,$1,$2,$17*%
%AMFreePoly0*
4,1,13,-0.400000,0.275000,-0.384776,0.351537,-0.341421,0.416421,-0.276537,0.459776,-0.200000,0.475000,0.400000,0.475000,0.400000,-0.475000,-0.200000,-0.475000,-0.276537,-0.459776,-0.341421,-0.416421,-0.384776,-0.351537,-0.400000,-0.275000,-0.400000,0.275000,-0.400000,0.275000,$1*%
%AMFreePoly1*
4,1,13,-0.400000,0.475000,0.200000,0.475000,0.276537,0.459776,0.341421,0.416421,0.384776,0.351537,0.400000,0.275000,0.400000,-0.275000,0.384776,-0.351537,0.341421,-0.416421,0.276537,-0.459776,0.200000,-0.475000,-0.400000,-0.475000,-0.400000,0.475000,-0.400000,0.475000,$1*%
G04 Aperture macros list end*
%ADD10C,0.445000*%
%ADD11RoundRect,0.200000X-0.200000X-0.275000X0.200000X-0.275000X0.200000X0.275000X-0.200000X0.275000X0*%
%ADD12RoundRect,0.200000X0.200000X0.275000X-0.200000X0.275000X-0.200000X-0.275000X0.200000X-0.275000X0*%
%ADD13RoundRect,0.135000X-0.135000X-0.185000X0.135000X-0.185000X0.135000X0.185000X-0.135000X0.185000X0*%
%ADD14RoundRect,0.140000X-0.140000X-0.170000X0.140000X-0.170000X0.140000X0.170000X-0.140000X0.170000X0*%
%ADD15RoundRect,0.218750X0.218750X0.256250X-0.218750X0.256250X-0.218750X-0.256250X0.218750X-0.256250X0*%
%ADD16RoundRect,0.200000X-0.275000X0.200000X-0.275000X-0.200000X0.275000X-0.200000X0.275000X0.200000X0*%
%ADD17RoundRect,0.150000X0.587500X0.150000X-0.587500X0.150000X-0.587500X-0.150000X0.587500X-0.150000X0*%
%ADD18C,0.650000*%
%ADD19R,1.160000X0.600000*%
%ADD20R,1.160000X0.300000*%
%ADD21O,1.800000X1.000000*%
%ADD22O,2.100000X1.000000*%
%ADD23RoundRect,0.135000X0.185000X-0.135000X0.185000X0.135000X-0.185000X0.135000X-0.185000X-0.135000X0*%
%ADD24R,1.700000X1.700000*%
%ADD25O,1.700000X1.700000*%
%ADD26R,0.570000X1.150000*%
%ADD27RoundRect,0.225000X0.225000X0.250000X-0.225000X0.250000X-0.225000X-0.250000X0.225000X-0.250000X0*%
%ADD28R,2.000000X1.100000*%
%ADD29R,0.800000X1.100000*%
%ADD30RoundRect,0.040000X-0.165000X-0.205000X0.165000X-0.205000X0.165000X0.205000X-0.165000X0.205000X0*%
%ADD31RoundRect,0.135000X0.135000X0.185000X-0.135000X0.185000X-0.135000X-0.185000X0.135000X-0.185000X0*%
%ADD32Outline5P,-0.470000X0.470000X0.340000X0.470000X0.470000X0.340000X0.470000X-0.470000X-0.470000X-0.470000X90.000000*%
%ADD33Outline5P,-0.470000X0.340000X-0.340000X0.470000X0.470000X0.470000X0.470000X-0.470000X-0.470000X-0.470000X90.000000*%
%ADD34Outline5P,-0.470000X0.470000X0.470000X0.470000X0.470000X-0.340000X0.340000X-0.470000X-0.470000X-0.470000X90.000000*%
%ADD35Outline5P,-0.470000X0.470000X0.470000X0.470000X0.470000X-0.470000X-0.340000X-0.470000X-0.470000X-0.340000X90.000000*%
%ADD36R,0.375000X0.500000*%
%ADD37R,0.300000X0.650000*%
%ADD38RoundRect,0.140000X0.170000X-0.140000X0.170000X0.140000X-0.170000X0.140000X-0.170000X-0.140000X0*%
%ADD39RoundRect,0.150000X-0.512500X-0.150000X0.512500X-0.150000X0.512500X0.150000X-0.512500X0.150000X0*%
%ADD40RoundRect,0.200000X0.275000X-0.200000X0.275000X0.200000X-0.275000X0.200000X-0.275000X-0.200000X0*%
%ADD41RoundRect,0.225000X-0.225000X-0.250000X0.225000X-0.250000X0.225000X0.250000X-0.225000X0.250000X0*%
%ADD42R,0.838200X1.295400*%
%ADD43RoundRect,0.225000X-0.250000X0.225000X-0.250000X-0.225000X0.250000X-0.225000X0.250000X0.225000X0*%
%ADD44RoundRect,0.135000X-0.185000X0.135000X-0.185000X-0.135000X0.185000X-0.135000X0.185000X0.135000X0*%
%ADD45C,1.000000*%
%ADD46R,2.900000X6.100000*%
%ADD47R,2.900000X1.350000*%
%ADD48R,0.800000X1.500000*%
%ADD49R,1.500000X0.800000*%
%ADD50R,1.100000X1.100000*%
%ADD51R,0.800000X0.350000*%
%ADD52R,0.350000X0.800000*%
%ADD53R,2.800000X2.800000*%
%ADD54RoundRect,0.150000X-0.150000X0.512500X-0.150000X-0.512500X0.150000X-0.512500X0.150000X0.512500X0*%
%ADD55R,1.700000X4.200000*%
%ADD56RoundRect,0.150000X-0.587500X-0.150000X0.587500X-0.150000X0.587500X0.150000X-0.587500X0.150000X0*%
%ADD57RoundRect,0.147500X-0.147500X-0.172500X0.147500X-0.172500X0.147500X0.172500X-0.147500X0.172500X0*%
%ADD58C,0.700000*%
%ADD59C,4.400000*%
%ADD60RoundRect,0.140000X-0.170000X0.140000X-0.170000X-0.140000X0.170000X-0.140000X0.170000X0.140000X0*%
%ADD61R,1.100000X2.000000*%
%ADD62R,1.100000X0.800000*%
%ADD63R,0.500000X0.660000*%
%ADD64RoundRect,0.218750X0.256250X-0.218750X0.256250X0.218750X-0.256250X0.218750X-0.256250X-0.218750X0*%
%ADD65FreePoly0,0.000000*%
%ADD66R,0.800000X0.950000*%
%ADD67FreePoly1,0.000000*%
%ADD68RoundRect,0.140000X0.140000X0.170000X-0.140000X0.170000X-0.140000X-0.170000X0.140000X-0.170000X0*%
G04 APERTURE END LIST*
D10*
X135274500Y-111844000D02*
G75*
G03*
X135274500Y-111844000I-222500J0D01*
G01*
G36*
X157061000Y-132583000D02*
G01*
X154575645Y-132583000D01*
X157061000Y-130097645D01*
X157061000Y-132583000D01*
G37*
G36*
X129089000Y-119675000D02*
G01*
X129839000Y-119675000D01*
X129839000Y-119325000D01*
X129089000Y-119325000D01*
X129089000Y-119675000D01*
G37*
G36*
X127439000Y-120675000D02*
G01*
X128189000Y-120675000D01*
X128189000Y-120325000D01*
X127439000Y-120325000D01*
X127439000Y-120675000D01*
G37*
G36*
X128389000Y-120630000D02*
G01*
X128889000Y-120630000D01*
X128889000Y-119370000D01*
X128389000Y-119370000D01*
X128389000Y-120630000D01*
G37*
G36*
X129089000Y-120675000D02*
G01*
X129839000Y-120675000D01*
X129839000Y-120325000D01*
X129089000Y-120325000D01*
X129089000Y-120675000D01*
G37*
G36*
X127439000Y-120175000D02*
G01*
X128189000Y-120175000D01*
X128189000Y-119825000D01*
X127439000Y-119825000D01*
X127439000Y-120175000D01*
G37*
G36*
X129089000Y-120175000D02*
G01*
X129839000Y-120175000D01*
X129839000Y-119825000D01*
X129089000Y-119825000D01*
X129089000Y-120175000D01*
G37*
G36*
X127439000Y-119675000D02*
G01*
X128189000Y-119675000D01*
X128189000Y-119325000D01*
X127439000Y-119325000D01*
X127439000Y-119675000D01*
G37*
D11*
X139815000Y-94572000D03*
X141465000Y-94572000D03*
X155055000Y-134704000D03*
X156705000Y-134704000D03*
D12*
X140512000Y-114384000D03*
X138862000Y-114384000D03*
D13*
X144194000Y-115146000D03*
X145214000Y-115146000D03*
D14*
X111520000Y-120000000D03*
X112480000Y-120000000D03*
D15*
X129997500Y-144356000D03*
X128422500Y-144356000D03*
D16*
X157785000Y-96287000D03*
X157785000Y-97937000D03*
D17*
X139926500Y-117874000D03*
X139926500Y-115974000D03*
X138051500Y-116924000D03*
D18*
X153720000Y-143182000D03*
X153720000Y-137402000D03*
D19*
X152655000Y-143492000D03*
X152655000Y-142692000D03*
D20*
X152655000Y-141542000D03*
X152655000Y-140542000D03*
X152655000Y-140042000D03*
X152655000Y-139042000D03*
D19*
X152655000Y-137892000D03*
X152655000Y-137092000D03*
X152655000Y-137092000D03*
X152655000Y-137892000D03*
D20*
X152655000Y-138542000D03*
X152655000Y-139542000D03*
X152655000Y-141042000D03*
X152655000Y-142042000D03*
D19*
X152655000Y-142692000D03*
X152655000Y-143492000D03*
D21*
X157400000Y-135972000D03*
X157400000Y-144612000D03*
D22*
X153220000Y-135972000D03*
X153220000Y-144612000D03*
D12*
X147307000Y-144102000D03*
X145657000Y-144102000D03*
D23*
X144323000Y-120990000D03*
X144323000Y-119970000D03*
D24*
X127940000Y-147912000D03*
D25*
X130480000Y-147912000D03*
X133020000Y-147912000D03*
X135560000Y-147912000D03*
X138100000Y-147912000D03*
X140640000Y-147912000D03*
X143180000Y-147912000D03*
X145720000Y-147912000D03*
X148260000Y-147912000D03*
X150800000Y-147912000D03*
X153340000Y-147912000D03*
D26*
X136482000Y-115908000D03*
X135052000Y-115908000D03*
D11*
X154801000Y-133434000D03*
X156451000Y-133434000D03*
D12*
X147307000Y-142832000D03*
X145657000Y-142832000D03*
D27*
X134303000Y-94572000D03*
X132753000Y-94572000D03*
D28*
X153782000Y-124798000D03*
D29*
X151882000Y-124798000D03*
D30*
X142176900Y-119820001D03*
X142176900Y-120480000D03*
X142176900Y-121139999D03*
X143167100Y-121139999D03*
X143167100Y-120480000D03*
X143167100Y-119820001D03*
D12*
X145148000Y-93810000D03*
X143498000Y-93810000D03*
D13*
X141146000Y-113241000D03*
X142166000Y-113241000D03*
D31*
X145214000Y-113241000D03*
X144194000Y-113241000D03*
D32*
X136372000Y-113164000D03*
D33*
X136372000Y-110524000D03*
D34*
X133732000Y-113164000D03*
D35*
X133732000Y-110524000D03*
D15*
X135585500Y-144356000D03*
X134010500Y-144356000D03*
D27*
X137351000Y-94572000D03*
X135801000Y-94572000D03*
D36*
X148357500Y-144444000D03*
D37*
X148895000Y-144519000D03*
D36*
X149432500Y-144444000D03*
X149432500Y-142744000D03*
D37*
X148895000Y-142669000D03*
D36*
X148357500Y-142744000D03*
D38*
X113500000Y-120000000D03*
X113500000Y-119040000D03*
D39*
X141915500Y-114196000D03*
X141915500Y-115146000D03*
X141915500Y-116096000D03*
X144190500Y-116096000D03*
X144190500Y-114196000D03*
D40*
X127940000Y-141117000D03*
X127940000Y-139467000D03*
D41*
X131737000Y-118984000D03*
X133287000Y-118984000D03*
D42*
X136179999Y-107945100D03*
X137280000Y-107945100D03*
X138380000Y-107945100D03*
X139480000Y-107945100D03*
X140580001Y-107945100D03*
X141680001Y-107945100D03*
X142779999Y-107945100D03*
X145779999Y-107945100D03*
X146880000Y-107945100D03*
X147980000Y-107945100D03*
X149080000Y-107945100D03*
X150180001Y-107945100D03*
X150180001Y-96438900D03*
X149080000Y-96438900D03*
X147980000Y-96438900D03*
X146880000Y-96438900D03*
X145779999Y-96438900D03*
X142779999Y-96438900D03*
X141680001Y-96438900D03*
X140580001Y-96438900D03*
X139480000Y-96438900D03*
X138380000Y-96438900D03*
X137280000Y-96438900D03*
X136179999Y-96438900D03*
D43*
X134036000Y-103195000D03*
X134036000Y-104745000D03*
D44*
X100700000Y-126750000D03*
X100700000Y-127770000D03*
D23*
X100700000Y-113250000D03*
X100700000Y-112230000D03*
D45*
X137592000Y-145372000D03*
D46*
X101650000Y-120000000D03*
D47*
X101650000Y-124625000D03*
X101650000Y-115375000D03*
D48*
X147282000Y-125680000D03*
X146182000Y-125680000D03*
X145082000Y-125680000D03*
X143982000Y-125680000D03*
X142882000Y-125680000D03*
X141782000Y-125680000D03*
X140682000Y-125680000D03*
X139582000Y-125680000D03*
X138482000Y-125680000D03*
X137382000Y-125680000D03*
X136282000Y-125680000D03*
X135182000Y-125680000D03*
X134082000Y-125680000D03*
X132982000Y-125680000D03*
D49*
X130182000Y-126580000D03*
X130182000Y-127680000D03*
X130182000Y-128780000D03*
X130182000Y-129880000D03*
X130182000Y-130980000D03*
X130182000Y-132080000D03*
X130182000Y-133180000D03*
X130182000Y-134280000D03*
X130182000Y-135380000D03*
X130182000Y-136480000D03*
X130182000Y-137580000D03*
X130182000Y-138680000D03*
X130182000Y-139780000D03*
D48*
X132982000Y-140680000D03*
X134082000Y-140680000D03*
X135182000Y-140680000D03*
X136282000Y-140680000D03*
X137382000Y-140680000D03*
X138482000Y-140680000D03*
X139582000Y-140680000D03*
X140682000Y-140680000D03*
X141782000Y-140680000D03*
X142882000Y-140680000D03*
X143982000Y-140680000D03*
X145082000Y-140680000D03*
X146182000Y-140680000D03*
X147282000Y-140680000D03*
D49*
X150082000Y-139780000D03*
X150082000Y-138680000D03*
X150082000Y-137580000D03*
X150082000Y-136480000D03*
X150082000Y-135380000D03*
X150082000Y-134280000D03*
X150082000Y-133180000D03*
X150082000Y-132080000D03*
X150082000Y-130980000D03*
X150082000Y-129880000D03*
X150082000Y-128780000D03*
X150082000Y-127680000D03*
X150082000Y-126580000D03*
D50*
X145382000Y-138430000D03*
X141182000Y-127930000D03*
X139082000Y-130030000D03*
X145382000Y-132130000D03*
X147482000Y-134230000D03*
X139082000Y-132130000D03*
X143282000Y-136330000D03*
X134882000Y-138430000D03*
X134882000Y-132130000D03*
X132782000Y-132130000D03*
X143282000Y-134230000D03*
X143282000Y-138430000D03*
X147482000Y-127930000D03*
X132782000Y-134230000D03*
X147482000Y-132130000D03*
X132782000Y-136330000D03*
X145382000Y-134230000D03*
X147482000Y-136330000D03*
X136982000Y-138430000D03*
X134882000Y-127930000D03*
X139082000Y-127930000D03*
X145382000Y-130030000D03*
X139082000Y-138430000D03*
X147482000Y-138430000D03*
X145382000Y-136330000D03*
X145382000Y-127930000D03*
X132782000Y-127930000D03*
X132782000Y-138430000D03*
X143282000Y-132130000D03*
X134882000Y-136330000D03*
X136982000Y-127930000D03*
X141182000Y-132130000D03*
X141182000Y-136330000D03*
X147482000Y-130030000D03*
X141182000Y-134230000D03*
X134882000Y-130030000D03*
X141182000Y-130030000D03*
X139082000Y-134230000D03*
X143282000Y-130030000D03*
X134882000Y-134230000D03*
X141182000Y-138430000D03*
X136982000Y-130030000D03*
X132782000Y-130030000D03*
X139082000Y-136330000D03*
X136982000Y-134230000D03*
X136982000Y-136330000D03*
X136982000Y-132130000D03*
X143282000Y-127930000D03*
D51*
X139052000Y-121780000D03*
X139052000Y-121130000D03*
X139052000Y-120480000D03*
X139052000Y-119830000D03*
D52*
X138027000Y-118805000D03*
X137377000Y-118805000D03*
X136727000Y-118805000D03*
X136077000Y-118805000D03*
D51*
X135052000Y-119830000D03*
X135052000Y-120480000D03*
X135052000Y-121130000D03*
X135052000Y-121780000D03*
D52*
X136077000Y-122805000D03*
X136727000Y-122805000D03*
X137377000Y-122805000D03*
X138027000Y-122805000D03*
D53*
X137052000Y-120805000D03*
D28*
X153782000Y-126322000D03*
D29*
X151882000Y-126322000D03*
D12*
X141211000Y-145880000D03*
X139561000Y-145880000D03*
D54*
X158862000Y-124422500D03*
X157912000Y-124422500D03*
X156962000Y-124422500D03*
X156962000Y-126697500D03*
X158862000Y-126697500D03*
D55*
X152506000Y-130478000D03*
D12*
X132829000Y-142832000D03*
X131179000Y-142832000D03*
X153911000Y-97874000D03*
X152261000Y-97874000D03*
D56*
X140210500Y-110386000D03*
X140210500Y-112286000D03*
X142085500Y-111336000D03*
D16*
X150546000Y-142769000D03*
X150546000Y-144419000D03*
D57*
X134082000Y-114384000D03*
X135052000Y-114384000D03*
D41*
X139052000Y-123655000D03*
X140602000Y-123655000D03*
D13*
X138862000Y-113241000D03*
X139882000Y-113241000D03*
D58*
X158666726Y-148666726D03*
X158666726Y-146333274D03*
X156333274Y-148666726D03*
X157500000Y-145850000D03*
D59*
X157500000Y-147500000D03*
D58*
X157500000Y-149150000D03*
X159150000Y-147500000D03*
X155850000Y-147500000D03*
X156333274Y-146333274D03*
D12*
X145148000Y-95080000D03*
X143498000Y-95080000D03*
D24*
X133020000Y-92032000D03*
D25*
X135560000Y-92032000D03*
X138100000Y-92032000D03*
X140640000Y-92032000D03*
X143180000Y-92032000D03*
X145720000Y-92032000D03*
X148260000Y-92032000D03*
X150800000Y-92032000D03*
X153340000Y-92032000D03*
D11*
X152261000Y-96604000D03*
X153911000Y-96604000D03*
D58*
X127350000Y-92500000D03*
X130166726Y-91333274D03*
X127833274Y-93666726D03*
X129000000Y-94150000D03*
X130650000Y-92500000D03*
X127833274Y-91333274D03*
X130166726Y-93666726D03*
D59*
X129000000Y-92500000D03*
D58*
X129000000Y-90850000D03*
D18*
X153720000Y-106606000D03*
X153720000Y-100826000D03*
D19*
X152655000Y-106916000D03*
X152655000Y-106116000D03*
D20*
X152655000Y-104966000D03*
X152655000Y-103966000D03*
X152655000Y-103466000D03*
X152655000Y-102466000D03*
D19*
X152655000Y-101316000D03*
X152655000Y-100516000D03*
X152655000Y-100516000D03*
X152655000Y-101316000D03*
D20*
X152655000Y-101966000D03*
X152655000Y-102966000D03*
X152655000Y-104466000D03*
X152655000Y-105466000D03*
D19*
X152655000Y-106116000D03*
X152655000Y-106916000D03*
D21*
X157400000Y-99396000D03*
X157400000Y-108036000D03*
D22*
X153220000Y-108036000D03*
X153220000Y-99396000D03*
D27*
X138367000Y-142832000D03*
X136817000Y-142832000D03*
D12*
X130035000Y-142832000D03*
X128385000Y-142832000D03*
D60*
X135052000Y-117079000D03*
X135052000Y-118039000D03*
D12*
X147307000Y-145880000D03*
X145657000Y-145880000D03*
D43*
X137592000Y-114358000D03*
X137592000Y-115908000D03*
X155626000Y-124785000D03*
X155626000Y-126335000D03*
D11*
X152261000Y-95080000D03*
X153911000Y-95080000D03*
D56*
X142877500Y-110386000D03*
X142877500Y-112286000D03*
X144752500Y-111336000D03*
D41*
X142405000Y-142832000D03*
X143955000Y-142832000D03*
D13*
X140003000Y-116924000D03*
X141023000Y-116924000D03*
X114490000Y-120000000D03*
X115510000Y-120000000D03*
D41*
X157391000Y-128227000D03*
X158941000Y-128227000D03*
D15*
X132791500Y-144356000D03*
X131216500Y-144356000D03*
D12*
X144259000Y-145880000D03*
X142609000Y-145880000D03*
D61*
X158166000Y-131336000D03*
D62*
X158166000Y-129436000D03*
D58*
X155850000Y-92500000D03*
X156333274Y-93666726D03*
X158666726Y-91333274D03*
X156333274Y-91333274D03*
D59*
X157500000Y-92500000D03*
D58*
X157500000Y-94150000D03*
X158666726Y-93666726D03*
X159150000Y-92500000D03*
X157500000Y-90850000D03*
D41*
X139611000Y-142832000D03*
X141161000Y-142832000D03*
D63*
X125966000Y-120000000D03*
X126866000Y-120000000D03*
D38*
X110310000Y-119630000D03*
X110310000Y-118670000D03*
D59*
X124000000Y-147500000D03*
D58*
X125166726Y-146333274D03*
X124000000Y-145850000D03*
X125650000Y-147500000D03*
X124000000Y-149150000D03*
X122833274Y-148666726D03*
X122833274Y-146333274D03*
X122350000Y-147500000D03*
X125166726Y-148666726D03*
D11*
X152261000Y-134704000D03*
X153911000Y-134704000D03*
D16*
X133020000Y-96033000D03*
X133020000Y-97683000D03*
D45*
X134036000Y-106764000D03*
D36*
X156163500Y-95754000D03*
D37*
X155626000Y-95679000D03*
D36*
X155088500Y-95754000D03*
X155088500Y-97454000D03*
D37*
X155626000Y-97529000D03*
D36*
X156163500Y-97454000D03*
D11*
X155563000Y-109304000D03*
X157213000Y-109304000D03*
D12*
X135623000Y-142832000D03*
X133973000Y-142832000D03*
D64*
X133020000Y-100439500D03*
X133020000Y-98864500D03*
D65*
X148514000Y-145880000D03*
D66*
X149530000Y-145880000D03*
D67*
X150546000Y-145880000D03*
D16*
X158166000Y-133117000D03*
X158166000Y-134767000D03*
D11*
X151753000Y-145880000D03*
X153403000Y-145880000D03*
D68*
X132992000Y-121944000D03*
X132032000Y-121944000D03*
M02*
