G04 #@! TF.GenerationSoftware,KiCad,Pcbnew,(6.0.9)*
G04 #@! TF.CreationDate,2023-11-11T19:45:23+09:00*
G04 #@! TF.ProjectId,CLAS_Combo_Breakout,434c4153-5f43-46f6-9d62-6f5f42726561,rev?*
G04 #@! TF.SameCoordinates,Original*
G04 #@! TF.FileFunction,Soldermask,Bot*
G04 #@! TF.FilePolarity,Negative*
%FSLAX46Y46*%
G04 Gerber Fmt 4.6, Leading zero omitted, Abs format (unit mm)*
G04 Created by KiCad (PCBNEW (6.0.9)) date 2023-11-11 19:45:23*
%MOMM*%
%LPD*%
G01*
G04 APERTURE LIST*
%ADD10C,0.650000*%
%ADD11O,1.800000X1.000000*%
%ADD12O,2.100000X1.000000*%
%ADD13R,1.700000X1.700000*%
%ADD14O,1.700000X1.700000*%
%ADD15C,0.700000*%
%ADD16C,4.400000*%
G04 APERTURE END LIST*
D10*
X153720000Y-143182000D03*
X153720000Y-137402000D03*
D11*
X157400000Y-135972000D03*
X157400000Y-144612000D03*
D12*
X153220000Y-135972000D03*
X153220000Y-144612000D03*
D13*
X127940000Y-147912000D03*
D14*
X130480000Y-147912000D03*
X133020000Y-147912000D03*
X135560000Y-147912000D03*
X138100000Y-147912000D03*
X140640000Y-147912000D03*
X143180000Y-147912000D03*
X145720000Y-147912000D03*
X148260000Y-147912000D03*
X150800000Y-147912000D03*
X153340000Y-147912000D03*
D15*
X158666726Y-148666726D03*
X158666726Y-146333274D03*
X156333274Y-148666726D03*
X157500000Y-145850000D03*
D16*
X157500000Y-147500000D03*
D15*
X157500000Y-149150000D03*
X159150000Y-147500000D03*
X155850000Y-147500000D03*
X156333274Y-146333274D03*
D13*
X133020000Y-92032000D03*
D14*
X135560000Y-92032000D03*
X138100000Y-92032000D03*
X140640000Y-92032000D03*
X143180000Y-92032000D03*
X145720000Y-92032000D03*
X148260000Y-92032000D03*
X150800000Y-92032000D03*
X153340000Y-92032000D03*
D15*
X127350000Y-92500000D03*
X130166726Y-91333274D03*
X127833274Y-93666726D03*
X129000000Y-94150000D03*
X130650000Y-92500000D03*
X127833274Y-91333274D03*
X130166726Y-93666726D03*
D16*
X129000000Y-92500000D03*
D15*
X129000000Y-90850000D03*
D10*
X153720000Y-106606000D03*
X153720000Y-100826000D03*
D11*
X157400000Y-99396000D03*
X157400000Y-108036000D03*
D12*
X153220000Y-108036000D03*
X153220000Y-99396000D03*
D15*
X155850000Y-92500000D03*
X156333274Y-93666726D03*
X158666726Y-91333274D03*
X156333274Y-91333274D03*
D16*
X157500000Y-92500000D03*
D15*
X157500000Y-94150000D03*
X158666726Y-93666726D03*
X159150000Y-92500000D03*
X157500000Y-90850000D03*
D16*
X124000000Y-147500000D03*
D15*
X125166726Y-146333274D03*
X124000000Y-145850000D03*
X125650000Y-147500000D03*
X124000000Y-149150000D03*
X122833274Y-148666726D03*
X122833274Y-146333274D03*
X122350000Y-147500000D03*
X125166726Y-148666726D03*
M02*
