G04 #@! TF.GenerationSoftware,KiCad,Pcbnew,(6.0.9)*
G04 #@! TF.CreationDate,2023-11-11T19:45:23+09:00*
G04 #@! TF.ProjectId,CLAS_Combo_Breakout,434c4153-5f43-46f6-9d62-6f5f42726561,rev?*
G04 #@! TF.SameCoordinates,Original*
G04 #@! TF.FileFunction,Legend,Bot*
G04 #@! TF.FilePolarity,Positive*
%FSLAX46Y46*%
G04 Gerber Fmt 4.6, Leading zero omitted, Abs format (unit mm)*
G04 Created by KiCad (PCBNEW (6.0.9)) date 2023-11-11 19:45:23*
%MOMM*%
%LPD*%
G01*
G04 APERTURE LIST*
%ADD10C,0.150000*%
%ADD11C,0.650000*%
%ADD12O,1.800000X1.000000*%
%ADD13O,2.100000X1.000000*%
%ADD14R,1.700000X1.700000*%
%ADD15O,1.700000X1.700000*%
%ADD16C,0.700000*%
%ADD17C,4.400000*%
G04 APERTURE END LIST*
D10*
X136012380Y-94463023D02*
X135536190Y-94129690D01*
X136012380Y-93891595D02*
X135012380Y-93891595D01*
X135012380Y-94272547D01*
X135060000Y-94367785D01*
X135107619Y-94415404D01*
X135202857Y-94463023D01*
X135345714Y-94463023D01*
X135440952Y-94415404D01*
X135488571Y-94367785D01*
X135536190Y-94272547D01*
X135536190Y-93891595D01*
X135488571Y-94891595D02*
X135488571Y-95224928D01*
X136012380Y-95367785D02*
X136012380Y-94891595D01*
X135012380Y-94891595D01*
X135012380Y-95367785D01*
X135964761Y-95748738D02*
X136012380Y-95891595D01*
X136012380Y-96129690D01*
X135964761Y-96224928D01*
X135917142Y-96272547D01*
X135821904Y-96320166D01*
X135726666Y-96320166D01*
X135631428Y-96272547D01*
X135583809Y-96224928D01*
X135536190Y-96129690D01*
X135488571Y-95939214D01*
X135440952Y-95843976D01*
X135393333Y-95796357D01*
X135298095Y-95748738D01*
X135202857Y-95748738D01*
X135107619Y-95796357D01*
X135060000Y-95843976D01*
X135012380Y-95939214D01*
X135012380Y-96177309D01*
X135060000Y-96320166D01*
X135488571Y-96748738D02*
X135488571Y-97082071D01*
X136012380Y-97224928D02*
X136012380Y-96748738D01*
X135012380Y-96748738D01*
X135012380Y-97224928D01*
X135012380Y-97510642D02*
X135012380Y-98082071D01*
X136012380Y-97796357D02*
X135012380Y-97796357D01*
X140092380Y-93748738D02*
X140092380Y-94320166D01*
X141092380Y-94034452D02*
X140092380Y-94034452D01*
X140092380Y-94558261D02*
X141092380Y-95224928D01*
X140092380Y-95224928D02*
X141092380Y-94558261D01*
X141092380Y-95605880D02*
X140092380Y-95605880D01*
X140092380Y-95843976D01*
X140140000Y-95986833D01*
X140235238Y-96082071D01*
X140330476Y-96129690D01*
X140520952Y-96177309D01*
X140663809Y-96177309D01*
X140854285Y-96129690D01*
X140949523Y-96082071D01*
X141044761Y-95986833D01*
X141092380Y-95843976D01*
X141092380Y-95605880D01*
X141092380Y-97129690D02*
X141092380Y-96558261D01*
X141092380Y-96843976D02*
X140092380Y-96843976D01*
X140235238Y-96748738D01*
X140330476Y-96653500D01*
X140378095Y-96558261D01*
X141187619Y-97320166D02*
X141187619Y-98082071D01*
X141092380Y-98320166D02*
X140092380Y-98320166D01*
X141092380Y-98891595D01*
X140092380Y-98891595D01*
X140568571Y-99367785D02*
X140568571Y-99701119D01*
X141092380Y-99843976D02*
X141092380Y-99367785D01*
X140092380Y-99367785D01*
X140092380Y-99843976D01*
X140092380Y-100463023D02*
X140092380Y-100653500D01*
X140140000Y-100748738D01*
X140235238Y-100843976D01*
X140425714Y-100891595D01*
X140759047Y-100891595D01*
X140949523Y-100843976D01*
X141044761Y-100748738D01*
X141092380Y-100653500D01*
X141092380Y-100463023D01*
X141044761Y-100367785D01*
X140949523Y-100272547D01*
X140759047Y-100224928D01*
X140425714Y-100224928D01*
X140235238Y-100272547D01*
X140140000Y-100367785D01*
X140092380Y-100463023D01*
X145220000Y-94415404D02*
X145172380Y-94320166D01*
X145172380Y-94177309D01*
X145220000Y-94034452D01*
X145315238Y-93939214D01*
X145410476Y-93891595D01*
X145600952Y-93843976D01*
X145743809Y-93843976D01*
X145934285Y-93891595D01*
X146029523Y-93939214D01*
X146124761Y-94034452D01*
X146172380Y-94177309D01*
X146172380Y-94272547D01*
X146124761Y-94415404D01*
X146077142Y-94463023D01*
X145743809Y-94463023D01*
X145743809Y-94272547D01*
X146172380Y-94891595D02*
X145172380Y-94891595D01*
X146172380Y-95463023D01*
X145172380Y-95463023D01*
X146172380Y-95939214D02*
X145172380Y-95939214D01*
X145172380Y-96177309D01*
X145220000Y-96320166D01*
X145315238Y-96415404D01*
X145410476Y-96463023D01*
X145600952Y-96510642D01*
X145743809Y-96510642D01*
X145934285Y-96463023D01*
X146029523Y-96415404D01*
X146124761Y-96320166D01*
X146172380Y-96177309D01*
X146172380Y-95939214D01*
X147712380Y-93796357D02*
X147712380Y-94415404D01*
X148093333Y-94082071D01*
X148093333Y-94224928D01*
X148140952Y-94320166D01*
X148188571Y-94367785D01*
X148283809Y-94415404D01*
X148521904Y-94415404D01*
X148617142Y-94367785D01*
X148664761Y-94320166D01*
X148712380Y-94224928D01*
X148712380Y-93939214D01*
X148664761Y-93843976D01*
X148617142Y-93796357D01*
X147712380Y-94701119D02*
X148712380Y-95034452D01*
X147712380Y-95367785D01*
X147712380Y-95605880D02*
X147712380Y-96224928D01*
X148093333Y-95891595D01*
X148093333Y-96034452D01*
X148140952Y-96129690D01*
X148188571Y-96177309D01*
X148283809Y-96224928D01*
X148521904Y-96224928D01*
X148617142Y-96177309D01*
X148664761Y-96129690D01*
X148712380Y-96034452D01*
X148712380Y-95748738D01*
X148664761Y-95653500D01*
X148617142Y-95605880D01*
X151204761Y-143671452D02*
X151252380Y-143814309D01*
X151252380Y-144052404D01*
X151204761Y-144147642D01*
X151157142Y-144195261D01*
X151061904Y-144242880D01*
X150966666Y-144242880D01*
X150871428Y-144195261D01*
X150823809Y-144147642D01*
X150776190Y-144052404D01*
X150728571Y-143861928D01*
X150680952Y-143766690D01*
X150633333Y-143719071D01*
X150538095Y-143671452D01*
X150442857Y-143671452D01*
X150347619Y-143719071D01*
X150300000Y-143766690D01*
X150252380Y-143861928D01*
X150252380Y-144100023D01*
X150300000Y-144242880D01*
X151252380Y-144671452D02*
X150252380Y-144671452D01*
X150252380Y-144909547D01*
X150300000Y-145052404D01*
X150395238Y-145147642D01*
X150490476Y-145195261D01*
X150680952Y-145242880D01*
X150823809Y-145242880D01*
X151014285Y-145195261D01*
X151109523Y-145147642D01*
X151204761Y-145052404D01*
X151252380Y-144909547D01*
X151252380Y-144671452D01*
X150966666Y-145623833D02*
X150966666Y-146100023D01*
X151252380Y-145528595D02*
X150252380Y-145861928D01*
X151252380Y-146195261D01*
X147712380Y-143671452D02*
X147712380Y-144290500D01*
X148093333Y-143957166D01*
X148093333Y-144100023D01*
X148140952Y-144195261D01*
X148188571Y-144242880D01*
X148283809Y-144290500D01*
X148521904Y-144290500D01*
X148617142Y-144242880D01*
X148664761Y-144195261D01*
X148712380Y-144100023D01*
X148712380Y-143814309D01*
X148664761Y-143719071D01*
X148617142Y-143671452D01*
X147712380Y-144576214D02*
X148712380Y-144909547D01*
X147712380Y-145242880D01*
X147712380Y-145480976D02*
X147712380Y-146100023D01*
X148093333Y-145766690D01*
X148093333Y-145909547D01*
X148140952Y-146004785D01*
X148188571Y-146052404D01*
X148283809Y-146100023D01*
X148521904Y-146100023D01*
X148617142Y-146052404D01*
X148664761Y-146004785D01*
X148712380Y-145909547D01*
X148712380Y-145623833D01*
X148664761Y-145528595D01*
X148617142Y-145480976D01*
X135488571Y-138004785D02*
X135488571Y-138338119D01*
X136012380Y-138480976D02*
X136012380Y-138004785D01*
X135012380Y-138004785D01*
X135012380Y-138480976D01*
X135012380Y-138814309D02*
X136012380Y-139480976D01*
X135012380Y-139480976D02*
X136012380Y-138814309D01*
X135012380Y-139719071D02*
X135012380Y-140290500D01*
X136012380Y-140004785D02*
X135012380Y-140004785D01*
X136012380Y-140623833D02*
X135012380Y-140623833D01*
X136012380Y-141100023D02*
X135012380Y-141100023D01*
X136012380Y-141671452D01*
X135012380Y-141671452D01*
X135012380Y-142004785D02*
X135012380Y-142576214D01*
X136012380Y-142290500D02*
X135012380Y-142290500D01*
X136107619Y-142671452D02*
X136107619Y-143433357D01*
X135012380Y-143576214D02*
X135012380Y-144242880D01*
X136012380Y-143576214D01*
X136012380Y-144242880D01*
X135488571Y-144623833D02*
X135488571Y-144957166D01*
X136012380Y-145100023D02*
X136012380Y-144623833D01*
X135012380Y-144623833D01*
X135012380Y-145100023D01*
X136012380Y-145528595D02*
X135012380Y-145528595D01*
X135012380Y-145766690D01*
X135060000Y-145909547D01*
X135155238Y-146004785D01*
X135250476Y-146052404D01*
X135440952Y-146100023D01*
X135583809Y-146100023D01*
X135774285Y-146052404D01*
X135869523Y-146004785D01*
X135964761Y-145909547D01*
X136012380Y-145766690D01*
X136012380Y-145528595D01*
X143108571Y-93891595D02*
X143108571Y-94224928D01*
X143632380Y-94367785D02*
X143632380Y-93891595D01*
X142632380Y-93891595D01*
X142632380Y-94367785D01*
X142632380Y-94701119D02*
X143632380Y-95367785D01*
X142632380Y-95367785D02*
X143632380Y-94701119D01*
X142632380Y-95605880D02*
X142632380Y-96177309D01*
X143632380Y-95891595D02*
X142632380Y-95891595D01*
X143632380Y-96510642D02*
X142632380Y-96510642D01*
X143632380Y-96986833D02*
X142632380Y-96986833D01*
X143632380Y-97558261D01*
X142632380Y-97558261D01*
X142632380Y-97891595D02*
X142632380Y-98463023D01*
X143632380Y-98177309D02*
X142632380Y-98177309D01*
X143727619Y-98558261D02*
X143727619Y-99320166D01*
X143632380Y-99558261D02*
X142632380Y-99558261D01*
X143632380Y-100129690D01*
X142632380Y-100129690D01*
X143108571Y-100605880D02*
X143108571Y-100939214D01*
X143632380Y-101082071D02*
X143632380Y-100605880D01*
X142632380Y-100605880D01*
X142632380Y-101082071D01*
X142632380Y-101701119D02*
X142632380Y-101891595D01*
X142680000Y-101986833D01*
X142775238Y-102082071D01*
X142965714Y-102129690D01*
X143299047Y-102129690D01*
X143489523Y-102082071D01*
X143584761Y-101986833D01*
X143632380Y-101891595D01*
X143632380Y-101701119D01*
X143584761Y-101605880D01*
X143489523Y-101510642D01*
X143299047Y-101463023D01*
X142965714Y-101463023D01*
X142775238Y-101510642D01*
X142680000Y-101605880D01*
X142632380Y-101701119D01*
X154530476Y-146538761D02*
X154387619Y-146586380D01*
X154149523Y-146586380D01*
X154054285Y-146538761D01*
X154006666Y-146491142D01*
X153959047Y-146395904D01*
X153959047Y-146300666D01*
X154006666Y-146205428D01*
X154054285Y-146157809D01*
X154149523Y-146110190D01*
X154340000Y-146062571D01*
X154435238Y-146014952D01*
X154482857Y-145967333D01*
X154530476Y-145872095D01*
X154530476Y-145776857D01*
X154482857Y-145681619D01*
X154435238Y-145634000D01*
X154340000Y-145586380D01*
X154101904Y-145586380D01*
X153959047Y-145634000D01*
X152959047Y-146491142D02*
X153006666Y-146538761D01*
X153149523Y-146586380D01*
X153244761Y-146586380D01*
X153387619Y-146538761D01*
X153482857Y-146443523D01*
X153530476Y-146348285D01*
X153578095Y-146157809D01*
X153578095Y-146014952D01*
X153530476Y-145824476D01*
X153482857Y-145729238D01*
X153387619Y-145634000D01*
X153244761Y-145586380D01*
X153149523Y-145586380D01*
X153006666Y-145634000D01*
X152959047Y-145681619D01*
X152054285Y-146586380D02*
X152530476Y-146586380D01*
X152530476Y-145586380D01*
X130932380Y-144338119D02*
X130456190Y-144004785D01*
X130932380Y-143766690D02*
X129932380Y-143766690D01*
X129932380Y-144147642D01*
X129980000Y-144242880D01*
X130027619Y-144290500D01*
X130122857Y-144338119D01*
X130265714Y-144338119D01*
X130360952Y-144290500D01*
X130408571Y-144242880D01*
X130456190Y-144147642D01*
X130456190Y-143766690D01*
X129932380Y-144623833D02*
X129932380Y-145195261D01*
X130932380Y-144909547D02*
X129932380Y-144909547D01*
X130932380Y-145528595D02*
X129932380Y-145528595D01*
X130932380Y-146100023D02*
X130360952Y-145671452D01*
X129932380Y-146100023D02*
X130503809Y-145528595D01*
X153744761Y-93843976D02*
X153792380Y-93986833D01*
X153792380Y-94224928D01*
X153744761Y-94320166D01*
X153697142Y-94367785D01*
X153601904Y-94415404D01*
X153506666Y-94415404D01*
X153411428Y-94367785D01*
X153363809Y-94320166D01*
X153316190Y-94224928D01*
X153268571Y-94034452D01*
X153220952Y-93939214D01*
X153173333Y-93891595D01*
X153078095Y-93843976D01*
X152982857Y-93843976D01*
X152887619Y-93891595D01*
X152840000Y-93939214D01*
X152792380Y-94034452D01*
X152792380Y-94272547D01*
X152840000Y-94415404D01*
X153697142Y-95415404D02*
X153744761Y-95367785D01*
X153792380Y-95224928D01*
X153792380Y-95129690D01*
X153744761Y-94986833D01*
X153649523Y-94891595D01*
X153554285Y-94843976D01*
X153363809Y-94796357D01*
X153220952Y-94796357D01*
X153030476Y-94843976D01*
X152935238Y-94891595D01*
X152840000Y-94986833D01*
X152792380Y-95129690D01*
X152792380Y-95224928D01*
X152840000Y-95367785D01*
X152887619Y-95415404D01*
X153792380Y-96320166D02*
X153792380Y-95843976D01*
X152792380Y-95843976D01*
X137552380Y-141052404D02*
X137552380Y-141623833D01*
X138552380Y-141338119D02*
X137552380Y-141338119D01*
X137552380Y-141861928D02*
X138552380Y-142528595D01*
X137552380Y-142528595D02*
X138552380Y-141861928D01*
X138647619Y-142671452D02*
X138647619Y-143433357D01*
X138552380Y-144242880D02*
X138076190Y-143909547D01*
X138552380Y-143671452D02*
X137552380Y-143671452D01*
X137552380Y-144052404D01*
X137600000Y-144147642D01*
X137647619Y-144195261D01*
X137742857Y-144242880D01*
X137885714Y-144242880D01*
X137980952Y-144195261D01*
X138028571Y-144147642D01*
X138076190Y-144052404D01*
X138076190Y-143671452D01*
X138552380Y-144671452D02*
X137552380Y-144671452D01*
X137552380Y-144909547D01*
X137600000Y-145052404D01*
X137695238Y-145147642D01*
X137790476Y-145195261D01*
X137980952Y-145242880D01*
X138123809Y-145242880D01*
X138314285Y-145195261D01*
X138409523Y-145147642D01*
X138504761Y-145052404D01*
X138552380Y-144909547D01*
X138552380Y-144671452D01*
X138076190Y-145861928D02*
X138552380Y-145861928D01*
X137552380Y-145528595D02*
X138076190Y-145861928D01*
X137552380Y-146195261D01*
X142632380Y-139100023D02*
X142632380Y-139671452D01*
X143632380Y-139385738D02*
X142632380Y-139385738D01*
X142632380Y-139909547D02*
X143632380Y-140576214D01*
X142632380Y-140576214D02*
X143632380Y-139909547D01*
X143632380Y-140957166D02*
X142632380Y-140957166D01*
X142632380Y-141195261D01*
X142680000Y-141338119D01*
X142775238Y-141433357D01*
X142870476Y-141480976D01*
X143060952Y-141528595D01*
X143203809Y-141528595D01*
X143394285Y-141480976D01*
X143489523Y-141433357D01*
X143584761Y-141338119D01*
X143632380Y-141195261D01*
X143632380Y-140957166D01*
X143632380Y-142480976D02*
X143632380Y-141909547D01*
X143632380Y-142195261D02*
X142632380Y-142195261D01*
X142775238Y-142100023D01*
X142870476Y-142004785D01*
X142918095Y-141909547D01*
X143727619Y-142671452D02*
X143727619Y-143433357D01*
X142632380Y-143576214D02*
X142632380Y-144242880D01*
X143632380Y-143576214D01*
X143632380Y-144242880D01*
X143108571Y-144623833D02*
X143108571Y-144957166D01*
X143632380Y-145100023D02*
X143632380Y-144623833D01*
X142632380Y-144623833D01*
X142632380Y-145100023D01*
X143632380Y-145528595D02*
X142632380Y-145528595D01*
X142632380Y-145766690D01*
X142680000Y-145909547D01*
X142775238Y-146004785D01*
X142870476Y-146052404D01*
X143060952Y-146100023D01*
X143203809Y-146100023D01*
X143394285Y-146052404D01*
X143489523Y-146004785D01*
X143584761Y-145909547D01*
X143632380Y-145766690D01*
X143632380Y-145528595D01*
X145220000Y-144004785D02*
X145172380Y-143909547D01*
X145172380Y-143766690D01*
X145220000Y-143623833D01*
X145315238Y-143528595D01*
X145410476Y-143480976D01*
X145600952Y-143433357D01*
X145743809Y-143433357D01*
X145934285Y-143480976D01*
X146029523Y-143528595D01*
X146124761Y-143623833D01*
X146172380Y-143766690D01*
X146172380Y-143861928D01*
X146124761Y-144004785D01*
X146077142Y-144052404D01*
X145743809Y-144052404D01*
X145743809Y-143861928D01*
X146172380Y-144480976D02*
X145172380Y-144480976D01*
X146172380Y-145052404D01*
X145172380Y-145052404D01*
X146172380Y-145528595D02*
X145172380Y-145528595D01*
X145172380Y-145766690D01*
X145220000Y-145909547D01*
X145315238Y-146004785D01*
X145410476Y-146052404D01*
X145600952Y-146100023D01*
X145743809Y-146100023D01*
X145934285Y-146052404D01*
X146029523Y-146004785D01*
X146124761Y-145909547D01*
X146172380Y-145766690D01*
X146172380Y-145528595D01*
X127440000Y-144100023D02*
X127392380Y-144004785D01*
X127392380Y-143861928D01*
X127440000Y-143719071D01*
X127535238Y-143623833D01*
X127630476Y-143576214D01*
X127820952Y-143528595D01*
X127963809Y-143528595D01*
X128154285Y-143576214D01*
X128249523Y-143623833D01*
X128344761Y-143719071D01*
X128392380Y-143861928D01*
X128392380Y-143957166D01*
X128344761Y-144100023D01*
X128297142Y-144147642D01*
X127963809Y-144147642D01*
X127963809Y-143957166D01*
X127868571Y-144576214D02*
X127868571Y-144909547D01*
X128392380Y-145052404D02*
X128392380Y-144576214D01*
X127392380Y-144576214D01*
X127392380Y-145052404D01*
X127392380Y-145671452D02*
X127392380Y-145861928D01*
X127440000Y-145957166D01*
X127535238Y-146052404D01*
X127725714Y-146100023D01*
X128059047Y-146100023D01*
X128249523Y-146052404D01*
X128344761Y-145957166D01*
X128392380Y-145861928D01*
X128392380Y-145671452D01*
X128344761Y-145576214D01*
X128249523Y-145480976D01*
X128059047Y-145433357D01*
X127725714Y-145433357D01*
X127535238Y-145480976D01*
X127440000Y-145576214D01*
X127392380Y-145671452D01*
X138552380Y-94463023D02*
X138076190Y-94129690D01*
X138552380Y-93891595D02*
X137552380Y-93891595D01*
X137552380Y-94272547D01*
X137600000Y-94367785D01*
X137647619Y-94415404D01*
X137742857Y-94463023D01*
X137885714Y-94463023D01*
X137980952Y-94415404D01*
X138028571Y-94367785D01*
X138076190Y-94272547D01*
X138076190Y-93891595D01*
X137552380Y-94796357D02*
X138552380Y-95463023D01*
X137552380Y-95463023D02*
X138552380Y-94796357D01*
X138552380Y-95843976D02*
X137552380Y-95843976D01*
X137552380Y-96082071D01*
X137600000Y-96224928D01*
X137695238Y-96320166D01*
X137790476Y-96367785D01*
X137980952Y-96415404D01*
X138123809Y-96415404D01*
X138314285Y-96367785D01*
X138409523Y-96320166D01*
X138504761Y-96224928D01*
X138552380Y-96082071D01*
X138552380Y-95843976D01*
X138552380Y-97367785D02*
X138552380Y-96796357D01*
X138552380Y-97082071D02*
X137552380Y-97082071D01*
X137695238Y-96986833D01*
X137790476Y-96891595D01*
X137838095Y-96796357D01*
X138647619Y-97558261D02*
X138647619Y-98320166D01*
X138552380Y-98558261D02*
X137552380Y-98558261D01*
X138552380Y-99129690D01*
X137552380Y-99129690D01*
X138028571Y-99605880D02*
X138028571Y-99939214D01*
X138552380Y-100082071D02*
X138552380Y-99605880D01*
X137552380Y-99605880D01*
X137552380Y-100082071D01*
X137552380Y-100701119D02*
X137552380Y-100891595D01*
X137600000Y-100986833D01*
X137695238Y-101082071D01*
X137885714Y-101129690D01*
X138219047Y-101129690D01*
X138409523Y-101082071D01*
X138504761Y-100986833D01*
X138552380Y-100891595D01*
X138552380Y-100701119D01*
X138504761Y-100605880D01*
X138409523Y-100510642D01*
X138219047Y-100463023D01*
X137885714Y-100463023D01*
X137695238Y-100510642D01*
X137600000Y-100605880D01*
X137552380Y-100701119D01*
X132948571Y-93891595D02*
X132948571Y-94224928D01*
X133472380Y-94367785D02*
X133472380Y-93891595D01*
X132472380Y-93891595D01*
X132472380Y-94367785D01*
X132472380Y-94701119D02*
X133472380Y-95367785D01*
X132472380Y-95367785D02*
X133472380Y-94701119D01*
X132472380Y-95605880D02*
X132472380Y-96177309D01*
X133472380Y-95891595D02*
X132472380Y-95891595D01*
X133186666Y-96463023D02*
X133186666Y-96939214D01*
X133472380Y-96367785D02*
X132472380Y-96701119D01*
X133472380Y-97034452D01*
X133472380Y-97367785D02*
X132472380Y-97367785D01*
X133472380Y-97939214D01*
X132472380Y-97939214D01*
X132472380Y-98272547D02*
X132472380Y-98843976D01*
X133472380Y-98558261D02*
X132472380Y-98558261D01*
X133567619Y-98939214D02*
X133567619Y-99701119D01*
X133472380Y-99939214D02*
X132472380Y-99939214D01*
X132472380Y-100177309D01*
X132520000Y-100320166D01*
X132615238Y-100415404D01*
X132710476Y-100463023D01*
X132900952Y-100510642D01*
X133043809Y-100510642D01*
X133234285Y-100463023D01*
X133329523Y-100415404D01*
X133424761Y-100320166D01*
X133472380Y-100177309D01*
X133472380Y-99939214D01*
X132948571Y-100939214D02*
X132948571Y-101272547D01*
X133472380Y-101415404D02*
X133472380Y-100939214D01*
X132472380Y-100939214D01*
X132472380Y-101415404D01*
X132472380Y-101701119D02*
X132472380Y-102272547D01*
X133472380Y-101986833D02*
X132472380Y-101986833D01*
X132948571Y-102605880D02*
X132948571Y-102939214D01*
X133472380Y-103082071D02*
X133472380Y-102605880D01*
X132472380Y-102605880D01*
X132472380Y-103082071D01*
X133377142Y-104082071D02*
X133424761Y-104034452D01*
X133472380Y-103891595D01*
X133472380Y-103796357D01*
X133424761Y-103653500D01*
X133329523Y-103558261D01*
X133234285Y-103510642D01*
X133043809Y-103463023D01*
X132900952Y-103463023D01*
X132710476Y-103510642D01*
X132615238Y-103558261D01*
X132520000Y-103653500D01*
X132472380Y-103796357D01*
X132472380Y-103891595D01*
X132520000Y-104034452D01*
X132567619Y-104082071D01*
X132472380Y-104367785D02*
X132472380Y-104939214D01*
X133472380Y-104653500D02*
X132472380Y-104653500D01*
X141092380Y-139576214D02*
X140616190Y-139242880D01*
X141092380Y-139004785D02*
X140092380Y-139004785D01*
X140092380Y-139385738D01*
X140140000Y-139480976D01*
X140187619Y-139528595D01*
X140282857Y-139576214D01*
X140425714Y-139576214D01*
X140520952Y-139528595D01*
X140568571Y-139480976D01*
X140616190Y-139385738D01*
X140616190Y-139004785D01*
X140092380Y-139909547D02*
X141092380Y-140576214D01*
X140092380Y-140576214D02*
X141092380Y-139909547D01*
X141092380Y-140957166D02*
X140092380Y-140957166D01*
X140092380Y-141195261D01*
X140140000Y-141338119D01*
X140235238Y-141433357D01*
X140330476Y-141480976D01*
X140520952Y-141528595D01*
X140663809Y-141528595D01*
X140854285Y-141480976D01*
X140949523Y-141433357D01*
X141044761Y-141338119D01*
X141092380Y-141195261D01*
X141092380Y-140957166D01*
X141092380Y-142480976D02*
X141092380Y-141909547D01*
X141092380Y-142195261D02*
X140092380Y-142195261D01*
X140235238Y-142100023D01*
X140330476Y-142004785D01*
X140378095Y-141909547D01*
X141187619Y-142671452D02*
X141187619Y-143433357D01*
X140092380Y-143576214D02*
X140092380Y-144242880D01*
X141092380Y-143576214D01*
X141092380Y-144242880D01*
X140568571Y-144623833D02*
X140568571Y-144957166D01*
X141092380Y-145100023D02*
X141092380Y-144623833D01*
X140092380Y-144623833D01*
X140092380Y-145100023D01*
X141092380Y-145528595D02*
X140092380Y-145528595D01*
X140092380Y-145766690D01*
X140140000Y-145909547D01*
X140235238Y-146004785D01*
X140330476Y-146052404D01*
X140520952Y-146100023D01*
X140663809Y-146100023D01*
X140854285Y-146052404D01*
X140949523Y-146004785D01*
X141044761Y-145909547D01*
X141092380Y-145766690D01*
X141092380Y-145528595D01*
X133472380Y-143576214D02*
X132472380Y-143576214D01*
X132472380Y-143957166D01*
X132520000Y-144052404D01*
X132567619Y-144100023D01*
X132662857Y-144147642D01*
X132805714Y-144147642D01*
X132900952Y-144100023D01*
X132948571Y-144052404D01*
X132996190Y-143957166D01*
X132996190Y-143576214D01*
X133472380Y-144576214D02*
X132472380Y-144576214D01*
X132472380Y-144957166D01*
X132520000Y-145052404D01*
X132567619Y-145100023D01*
X132662857Y-145147642D01*
X132805714Y-145147642D01*
X132900952Y-145100023D01*
X132948571Y-145052404D01*
X132996190Y-144957166D01*
X132996190Y-144576214D01*
X133424761Y-145528595D02*
X133472380Y-145671452D01*
X133472380Y-145909547D01*
X133424761Y-146004785D01*
X133377142Y-146052404D01*
X133281904Y-146100023D01*
X133186666Y-146100023D01*
X133091428Y-146052404D01*
X133043809Y-146004785D01*
X132996190Y-145909547D01*
X132948571Y-145719071D01*
X132900952Y-145623833D01*
X132853333Y-145576214D01*
X132758095Y-145528595D01*
X132662857Y-145528595D01*
X132567619Y-145576214D01*
X132520000Y-145623833D01*
X132472380Y-145719071D01*
X132472380Y-145957166D01*
X132520000Y-146100023D01*
X151204761Y-93843976D02*
X151252380Y-93986833D01*
X151252380Y-94224928D01*
X151204761Y-94320166D01*
X151157142Y-94367785D01*
X151061904Y-94415404D01*
X150966666Y-94415404D01*
X150871428Y-94367785D01*
X150823809Y-94320166D01*
X150776190Y-94224928D01*
X150728571Y-94034452D01*
X150680952Y-93939214D01*
X150633333Y-93891595D01*
X150538095Y-93843976D01*
X150442857Y-93843976D01*
X150347619Y-93891595D01*
X150300000Y-93939214D01*
X150252380Y-94034452D01*
X150252380Y-94272547D01*
X150300000Y-94415404D01*
X151252380Y-94843976D02*
X150252380Y-94843976D01*
X150252380Y-95082071D01*
X150300000Y-95224928D01*
X150395238Y-95320166D01*
X150490476Y-95367785D01*
X150680952Y-95415404D01*
X150823809Y-95415404D01*
X151014285Y-95367785D01*
X151109523Y-95320166D01*
X151204761Y-95224928D01*
X151252380Y-95082071D01*
X151252380Y-94843976D01*
X150966666Y-95796357D02*
X150966666Y-96272547D01*
X151252380Y-95701119D02*
X150252380Y-96034452D01*
X151252380Y-96367785D01*
%LPC*%
D11*
X153720000Y-143182000D03*
X153720000Y-137402000D03*
D12*
X157400000Y-135972000D03*
X157400000Y-144612000D03*
D13*
X153220000Y-135972000D03*
X153220000Y-144612000D03*
D14*
X127940000Y-147912000D03*
D15*
X130480000Y-147912000D03*
X133020000Y-147912000D03*
X135560000Y-147912000D03*
X138100000Y-147912000D03*
X140640000Y-147912000D03*
X143180000Y-147912000D03*
X145720000Y-147912000D03*
X148260000Y-147912000D03*
X150800000Y-147912000D03*
X153340000Y-147912000D03*
D16*
X158666726Y-148666726D03*
X158666726Y-146333274D03*
X156333274Y-148666726D03*
X157500000Y-145850000D03*
D17*
X157500000Y-147500000D03*
D16*
X157500000Y-149150000D03*
X159150000Y-147500000D03*
X155850000Y-147500000D03*
X156333274Y-146333274D03*
D14*
X133020000Y-92032000D03*
D15*
X135560000Y-92032000D03*
X138100000Y-92032000D03*
X140640000Y-92032000D03*
X143180000Y-92032000D03*
X145720000Y-92032000D03*
X148260000Y-92032000D03*
X150800000Y-92032000D03*
X153340000Y-92032000D03*
D16*
X127350000Y-92500000D03*
X130166726Y-91333274D03*
X127833274Y-93666726D03*
X129000000Y-94150000D03*
X130650000Y-92500000D03*
X127833274Y-91333274D03*
X130166726Y-93666726D03*
D17*
X129000000Y-92500000D03*
D16*
X129000000Y-90850000D03*
D11*
X153720000Y-106606000D03*
X153720000Y-100826000D03*
D12*
X157400000Y-99396000D03*
X157400000Y-108036000D03*
D13*
X153220000Y-108036000D03*
X153220000Y-99396000D03*
D16*
X155850000Y-92500000D03*
X156333274Y-93666726D03*
X158666726Y-91333274D03*
X156333274Y-91333274D03*
D17*
X157500000Y-92500000D03*
D16*
X157500000Y-94150000D03*
X158666726Y-93666726D03*
X159150000Y-92500000D03*
X157500000Y-90850000D03*
D17*
X124000000Y-147500000D03*
D16*
X125166726Y-146333274D03*
X124000000Y-145850000D03*
X125650000Y-147500000D03*
X124000000Y-149150000D03*
X122833274Y-148666726D03*
X122833274Y-146333274D03*
X122350000Y-147500000D03*
X125166726Y-148666726D03*
M02*
